<?xml version="1.0" encoding="UTF-8"?>
<svg id="Layer_2" xmlns="http://www.w3.org/2000/svg" viewBox="0 0 212.18 84.13">
  <defs>
    <style>
      .cls-1 {
        fill: #f1f2f2;
      }
    </style>
  </defs>
  <g id="Layer_1-2" data-name="Layer_1">
    <g>
      <g>
        <path class="cls-1" d="M9.96,29.53l-.13.18H.13l-.13-.18c.7-.2,1.25-.56,1.65-1.06.4-.5.67-1.25.84-2.25.16-1,.24-2.35.24-4.05v-14.01c0-1.7-.08-3.05-.24-4.05s-.44-1.75-.84-2.25c-.4-.5-.95-.85-1.65-1.06l.13-.18h9.69l.13.18c-.59.21-1.04.56-1.36,1.06-.32.5-.56,1.25-.71,2.25-.15,1-.22,2.35-.22,4.05v14.01c0,1.7.07,3.06.22,4.05.15,1,.38,1.75.71,2.25.32.5.78.85,1.36,1.06M5.24,14.5h15.34v.62H5.24v-.62ZM25.25,29.53l-.13.18h-9.69l-.13-.18c.59-.2,1.04-.56,1.37-1.06.32-.5.56-1.25.7-2.25.15-1,.22-2.35.22-4.05v-14.01c0-1.7-.07-3.05-.22-4.05s-.38-1.75-.7-2.25c-.32-.5-.78-.85-1.37-1.06l.13-.18h9.69l.13.18c-.71.21-1.26.56-1.65,1.06-.4.5-.68,1.25-.84,2.25-.16,1-.24,2.35-.24,4.05v14.01c0,1.7.08,3.06.24,4.05.16,1,.44,1.75.84,2.25.4.5.95.85,1.65,1.06"/>
        <path class="cls-1" d="M34.02,8.29v15.25c0,1.97.17,3.4.51,4.3.34.9.92,1.46,1.74,1.7l-.13.18h-8.68l-.13-.18c.82-.23,1.4-.8,1.74-1.7.34-.9.51-2.33.51-4.3v-7.45c0-1.97-.19-3.4-.57-4.3-.38-.9-1-1.48-1.85-1.74l.13-.18,6.61-1.72.13.13ZM31.68,5.95c-.56,0-1.07-.14-1.52-.42-.46-.28-.82-.64-1.1-1.08-.28-.44-.42-.93-.42-1.45s.14-1.01.42-1.46c.28-.44.64-.79,1.08-1.06.44-.26.94-.39,1.5-.39s1.06.13,1.52.39c.45.27.81.62,1.08,1.06.26.44.4.93.4,1.46s-.14,1.01-.42,1.45c-.28.44-.64.8-1.08,1.08-.44.28-.93.42-1.46.42"/>
        <path class="cls-1" d="M46.32,23.09c-1.24,0-2.35-.19-3.35-.57-.41.12-.76.32-1.04.62-.28.29-.42.63-.42,1.01,0,.53.26.96.79,1.28.53.32,1.23.51,2.12.57l4.14.35c2.23.18,3.95.79,5.16,1.85,1.2,1.06,1.81,2.36,1.81,3.92,0,1.26-.38,2.41-1.15,3.44-.76,1.03-1.88,1.85-3.35,2.47-1.47.62-3.22.92-5.24.92-1.74,0-3.25-.21-4.54-.62-1.29-.41-2.31-1-3.04-1.76-.73-.76-1.1-1.63-1.1-2.6,0-1.12.47-2.09,1.41-2.91.94-.82,2.26-1.38,3.97-1.67-1.26-.29-2.21-.75-2.84-1.37-.63-.62-.95-1.34-.95-2.16s.3-1.51.9-2.16c.6-.65,1.49-1.15,2.67-1.5-1.26-.59-2.25-1.45-2.95-2.6-.7-1.14-1.06-2.48-1.06-4.01,0-2.26.73-4.08,2.2-5.44,1.47-1.37,3.42-2.05,5.86-2.05,1.38,0,2.6.22,3.66.66l1.23.62c1,.65,1.78,1.5,2.34,2.55.56,1.06.84,2.28.84,3.66,0,2.26-.74,4.08-2.2,5.44-1.47,1.37-3.42,2.05-5.86,2.05M41.2,33.54c0,1.41.49,2.56,1.46,3.46.97.89,2.17,1.34,3.61,1.34.97,0,1.83-.19,2.58-.57.75-.38,1.34-.9,1.78-1.54.44-.65.66-1.38.66-2.2,0-1.09-.41-1.99-1.24-2.71-.82-.72-2.01-1.18-3.57-1.39l-3.57-.44c-.56.62-.99,1.26-1.28,1.92-.29.66-.44,1.37-.44,2.14M46.54,22.61c1,0,1.75-.57,2.25-1.7.5-1.13.75-2.86.75-5.18s-.3-4.08-.9-5.27c-.6-1.19-1.45-1.78-2.53-1.78-1.03,0-1.8.56-2.31,1.67-.51,1.12-.77,2.81-.77,5.07s.31,4.1.92,5.33c.62,1.23,1.48,1.85,2.6,1.85"/>
        <path class="cls-1" d="M56.62,29.53c.82-.24,1.4-.8,1.74-1.7.34-.9.51-2.33.51-4.3V7.93c0-1.97-.18-3.4-.55-4.3-.37-.9-.99-1.48-1.87-1.74l.13-.18L63.19,0l.13.13v23.4c0,1.97.14,3.4.42,4.3.28.9.76,1.46,1.43,1.7l-.13.18h-8.29l-.13-.18ZM63.32,11.72l-1.32,1.89v-2.47h1.28c.73-1,1.61-1.76,2.62-2.27,1.01-.51,2.06-.77,3.15-.77s2.02.25,2.89.75c.87.5,1.56,1.21,2.09,2.12.53.91.79,2,.79,3.26v9.3c0,1.97.17,3.4.51,4.3.34.9.92,1.46,1.74,1.7l-.13.18h-8.24l-.13-.18c.68-.24,1.15-.8,1.41-1.7.26-.9.4-2.33.4-4.3v-8.81c0-1.32-.32-2.38-.95-3.17-.63-.79-1.48-1.19-2.53-1.19-.59,0-1.19.12-1.81.35-.62.23-1.21.57-1.76,1.01"/>
        <path class="cls-1" d="M84.61.13v10.93c.53-.91,1.24-1.63,2.14-2.16.9-.53,1.87-.79,2.93-.79,1.44,0,2.72.48,3.83,1.43,1.12.95,1.99,2.25,2.62,3.88.63,1.63.95,3.49.95,5.57,0,2.2-.37,4.16-1.1,5.88-.73,1.72-1.74,3.06-3.02,4.03-1.28.97-2.77,1.46-4.47,1.46-.73,0-1.52-.13-2.36-.38-.84-.25-1.74-.65-2.71-1.21l-3.09,1.5h-.17V7.93c0-1.94-.18-3.36-.55-4.27-.37-.91-.99-1.5-1.87-1.76l.13-.18L84.48,0l.13.13ZM87.74,29.57c.97,0,1.77-.42,2.4-1.26.63-.84,1.1-1.97,1.41-3.39.31-1.42.46-3,.46-4.74,0-1.82-.17-3.48-.51-4.98-.34-1.5-.85-2.7-1.52-3.59-.68-.9-1.53-1.34-2.56-1.34-.44,0-.9.12-1.37.35-.47.24-.95.59-1.45,1.06v13.66c0,1.23.3,2.25.9,3.04.6.79,1.35,1.19,2.23,1.19"/>
        <path class="cls-1" d="M105.67,23.53c0,1.97.17,3.4.51,4.3.34.9.93,1.46,1.78,1.7l-.13.18h-8.73l-.13-.18c.82-.23,1.4-.8,1.74-1.7.34-.9.51-2.33.51-4.3v-7.45c0-1.97-.18-3.4-.55-4.3-.37-.9-.99-1.48-1.87-1.74l.13-.18,6.61-1.72.13.13v15.25ZM113.38,8.29l-.79,4.8-.13.09c-.53-.47-1.08-.8-1.65-.99-.57-.19-1.14-.29-1.7-.29-.79,0-1.51.22-2.16.66-.65.44-1.15,1.07-1.5,1.9l-.66-1.01h.93c.27-1.29.76-2.38,1.48-3.26.72-.88,1.62-1.5,2.69-1.87,1.07-.37,2.24-.38,3.5-.02"/>
        <path class="cls-1" d="M123.21,14.23c0-1.26-.35-2.29-1.06-3.06-.71-.78-1.63-1.17-2.78-1.17-.82,0-1.67.23-2.53.7-.87.47-1.59,1.28-2.18,2.42l-.18-.09c.26-1.06.73-1.95,1.39-2.69.66-.73,1.46-1.29,2.38-1.67.93-.38,1.9-.57,2.93-.57,1.17,0,2.25.24,3.22.73.97.48,1.75,1.22,2.36,2.2.6.98.9,2.2.9,3.64v11.68c0,.73.16,1.29.49,1.67.32.38.73.57,1.23.57.32,0,.63-.07.93-.2.29-.13.6-.33.93-.6l.18.09c-.44.79-1.02,1.4-1.74,1.83-.72.43-1.55.64-2.49.64s-1.8-.27-2.58-.82c-.78-.54-1.21-1.34-1.3-2.4h-.09c-.65,1.12-1.44,1.93-2.38,2.45-.94.51-1.94.77-3,.77-1.41,0-2.63-.47-3.66-1.41-1.03-.94-1.54-2.23-1.54-3.88,0-1.17.26-2.16.77-2.95.52-.79,1.16-1.44,1.94-1.94.78-.5,1.58-.89,2.4-1.17.82-.28,1.53-.51,2.12-.68.97-.32,1.77-.71,2.4-1.15.63-.44.95-.95.95-1.54v-1.41ZM123.21,17.45c-.41.24-.81.45-1.21.64-.4.19-.73.36-.99.51-1.41.65-2.38,1.46-2.91,2.45-.53.98-.79,2.08-.79,3.28,0,1.32.25,2.33.75,3.02.5.69,1.18,1.03,2.03,1.03.47,0,1-.15,1.59-.46.59-.31,1.1-.83,1.54-1.56v-8.9Z"/>
        <path class="cls-1" d="M131.98,29.53c.82-.24,1.4-.8,1.74-1.7.34-.9.51-2.33.51-4.3v-7.45c0-1.97-.18-3.4-.55-4.3-.37-.9-.99-1.48-1.87-1.74l.13-.18,6.57-1.72.13.13v2.86c.7-.97,1.54-1.72,2.51-2.25.97-.53,2.01-.79,3.13-.79,1.67,0,3.03.58,4.05,1.74,1.03,1.16,1.54,2.67,1.54,4.52v9.17c0,1.97.13,3.4.4,4.3.26.9.74,1.46,1.41,1.7l-.13.18h-7.85l-.13-.18c.67-.24,1.15-.8,1.43-1.7.28-.9.42-2.33.42-4.3v-8.9c0-1.32-.3-2.37-.9-3.13-.6-.76-1.4-1.15-2.4-1.15-1.18,0-2.32.46-3.44,1.37v11.81c0,1.97.14,3.4.42,4.3.28.9.75,1.46,1.43,1.7l-.13.18h-8.29l-.13-.18ZM149.43,11.77l-1.23,1.23v-1.76h1.1c.71-1.03,1.59-1.81,2.64-2.34,1.06-.53,2.18-.79,3.35-.79,1.64,0,2.99.58,4.05,1.74,1.06,1.16,1.59,2.67,1.59,4.52v9.17c0,1.97.17,3.4.51,4.3.34.9.93,1.46,1.79,1.7l-.13.18h-8.2l-.13-.18c.68-.24,1.15-.8,1.41-1.7.26-.9.4-2.33.4-4.3v-8.9c0-1.35-.33-2.4-.99-3.15-.66-.75-1.49-1.12-2.49-1.12-.62,0-1.23.12-1.85.35-.62.24-1.22.59-1.81,1.06"/>
        <path class="cls-1" d="M170.76.13v10.93c.53-.91,1.24-1.63,2.14-2.16.9-.53,1.87-.79,2.93-.79,1.44,0,2.72.48,3.83,1.43,1.12.95,1.99,2.25,2.62,3.88.63,1.63.95,3.49.95,5.57,0,2.2-.37,4.16-1.1,5.88-.73,1.72-1.74,3.06-3.02,4.03-1.28.97-2.77,1.46-4.47,1.46-.73,0-1.52-.13-2.36-.38-.84-.25-1.74-.65-2.71-1.21l-3.09,1.5h-.17V7.93c0-1.94-.18-3.36-.55-4.27-.37-.91-.99-1.5-1.87-1.76l.13-.18L170.63,0l.13.13ZM173.89,29.57c.97,0,1.77-.42,2.4-1.26.63-.84,1.1-1.97,1.41-3.39.31-1.42.46-3,.46-4.74,0-1.82-.17-3.48-.51-4.98-.34-1.5-.85-2.7-1.52-3.59-.68-.9-1.53-1.34-2.56-1.34-.44,0-.9.12-1.37.35-.47.24-.95.59-1.45,1.06v13.66c0,1.23.3,2.25.9,3.04.6.79,1.35,1.19,2.23,1.19"/>
        <path class="cls-1" d="M191.82.13v23.4c0,1.97.17,3.4.51,4.3.34.9.92,1.46,1.74,1.7l-.13.18h-8.68l-.13-.18c.82-.24,1.4-.8,1.74-1.7.34-.9.51-2.33.51-4.3V7.93c0-1.97-.19-3.4-.57-4.3-.38-.9-1-1.48-1.85-1.74l.13-.18,6.61-1.72.13.13Z"/>
        <path class="cls-1" d="M204.56,30.36c-1.67,0-3.18-.48-4.52-1.45-1.34-.97-2.39-2.3-3.15-3.99-.76-1.69-1.15-3.62-1.15-5.8s.39-4.08,1.17-5.73c.78-1.64,1.83-2.94,3.15-3.88,1.32-.94,2.8-1.41,4.45-1.41,1.5,0,2.82.39,3.97,1.17,1.15.78,2.05,1.85,2.71,3.22.66,1.37.99,2.96.99,4.78,0,.27,0,.51-.02.75-.02.24-.05.48-.11.75h-13.09v-.62h8.81c0-.35,0-.71.02-1.06.01-.35.02-.68.02-.97,0-2.29-.31-4.09-.92-5.4-.62-1.31-1.45-1.96-2.51-1.96-1.18,0-2.11.75-2.8,2.25-.69,1.5-1.04,3.51-1.04,6.04,0,2.38.3,4.39.9,6.04.6,1.65,1.4,2.89,2.38,3.72.98.84,2.02,1.26,3.11,1.26.88,0,1.7-.26,2.47-.77.76-.51,1.39-1.27,1.9-2.27l.26.09c-.32,1.09-.83,2.03-1.52,2.82-.69.79-1.5,1.4-2.42,1.81-.92.41-1.95.62-3.06.62"/>
        <path class="cls-1" d="M52.04,5.51c.33.26.59.52.78.77.19.26.32.55.39.86.11.49.01.93-.29,1.33-.3.4-.81.68-1.53.84l-.14.03s.02.08.02.12c-.02.13-.03.26-.03.39,0,.05,0,.1,0,.15,0,.03,0,.06.01.08.02.13.05.26.08.38.02.07.04.13.06.19,0,.02.01.04.02.07.1.25.22.5.36.74.07.13.15.25.24.37.01.02,0,.02.02.03,0,0,0,0,.02.03.05.06.09.12.14.18.18.23.38.44.6.64.03.03.07.06.1.09.01,0,.08.07.1.08.12.09.24.18.37.26.05.03.1.06.15.09.79-.34,1.36-.87,1.67-1.63.36-.88.44-1.77.24-2.69-.2-.92-.59-1.68-1.16-2.29-.57-.61-1.29-1.04-2.16-1.3l-.05.19Z"/>
      </g>
      <g>
        <path class="cls-1" d="M84.76,59.4c-.35,0-1.94.7-2.33.92-.84.44-1.76.62-2.64.97-1.36.53-3.56,1.05-5.06,1.05-.33,0-.63-.05-.86-.19-.03-.05-.06-.09-.08-.14,0-.01-.01-.03-.02-.04,0-.01-.01-.04-.02-.04,0-.02-.01-.04-.02-.06-.03-.08-.04-.16-.06-.24,0-.01,0-.02,0-.03,0-.05,0-.09,0-.14,0-.04,0-.08,0-.12,0-.01,0-.03,0-.04.02-.07.03-.15.05-.23,0-.02,0-.03.01-.04.19-.22.4-.43.6-.63.46-.44.93-.87,1.35-1.35.42-.49.77-1.04.98-1.63,0-.01.02-.03.03-.04.09-.14.17-.28.23-.44.24-.43.43-.88.52-1.36.22-1.16-.29-2.3-1.52-2.56-.33-.07-.64-.06-.94-.02-.4-.1-.81-.14-1.2-.02-.21.07-.42.18-.59.33-.61.05-1.21.29-1.65.74-1,.4-1.95,1.05-2.79,1.71-.1,0-.19,0-.28.05-.11-.06-.22-.12-.32-.19-.02-.01-.03-.03-.04-.04.35-.41.73-.8.92-.99.31-.31.53-.66.79-1.01.4-.48.79-.97,1.23-1.41,1.54-1.72,3.04-3.43,4.88-4.84.7-.53.97-1.5,1.81-1.85.44-.18.79-.53.79-1.06,0-.35-.26-.57-.62-.57-2.07,0-5.59,3.21-6.78,4.8-.75.97-1.89,1.45-2.64,2.38-.7.84-1.58,1.36-2.33,2.11-.84.75-2.38,2.46-3.3,2.9-1.67.79-3.12,1.85-4.8,2.55-.92.35-1.76.88-2.64,1.28-.22.09-.7.31-.7.57,0,.17.31.31.44.31.88,0,2.55-1.23,3.39-1.54.62-.22,3.65-1.8,3.83-1.8.09,0,.13.04.13.09,0,.57-1.19,1.8-1.58,2.16-1.28,1.1-2.16,2.46-3.21,3.7-1.28,1.45-2.64,2.86-3.92,4.31-1.32,1.45-2.6,2.9-4.05,4.18-.7.66-1.45,1.23-2.2,1.85-.7.62-1.19,1.41-1.98,1.98-.4.26-.48.66-.92.97-.84.48-3.56,2.77-3.74,3.65-.04.26-.09.57-.09.88,0,.26,0,.44.22.66.48.62,2.38,2.29,3.12,2.29.31,0,.57-.22.75-.44.57-.57.75-1.28,1.14-1.98.49-.93.97-1.89,1.63-2.68.93-1.19,2.11-2.16,3.04-3.35.66-.88,1.32-1.72,1.94-2.6.48-.71,1.19-1.23,1.81-1.85,1.01-.97,1.94-1.98,2.77-3.12.48-.62.97-1.23,1.54-1.76.57-.57,1.23-.92,1.63-1.67.44-.75,1.1-1.14,1.63-1.76.44-.53,1.1-.92,1.54-1.45.48-.62,1.1-1.1,1.63-1.72.48-.56,2.21-1.71,3.74-2.52.01-.01.02-.03.04-.04.6-.46,1.33-.83,2.09-.92.6-.07,1.22.19,1.38.82.12.46,0,.94-.2,1.38.03.28.02.56,0,.85-.13.22-.26.43-.37.67-.29.61-.62,1.14-1.13,1.59-.41.36-.87.64-1.36.89-.67.28-1.38.46-2.09.56-1.34.73-2.98.86-4.51.25-.53-.21-.88.66-.38.91.04.02.08.03.12.05h0s.01,0,.02,0c.74.36,1.54.57,2.36.62.02,0,.04.02.06.03.23.05.46.1.69.15.06.01.12.01.18.01.33.16.71.18,1.06,0,.02-.01.04-.03.07-.05.25-.05.5-.1.76-.15.14-.02.28-.05.42-.08.82-.16,1.65-.33,2.46-.53.45.01.9.09,1.36.06.3-.02.6-.08.87-.2,1-.11,2-.34,3-.47,1.15-.18,3.17-.75,4.23-1.32.79-.44,4.93-1.94,4.93-2.77,0-.09-.13-.13-.22-.13"/>
        <path class="cls-1" d="M110.02,60.64c-.62.26-1.19.57-1.8.79-.97.31-1.76.84-2.69,1.19-1.23.44-2.46,1.06-3.74,1.36-1.58.4-3.08,1.23-4.71,1.23-.93,0-1.41-.57-2.07-1.1-.26-.22-.57-.48-.57-.84,0-.13.04-.31.04-.44,0-.18-.18-.35-.31-.35-.09,0-.18.04-.26.09-.75.35-1.54.26-2.29.7-1.06.66-2.29.57-3.43.97-.88.31-2.38.66-3.3.66-.7,0-.84-.31-1.41-.57-.66-.4-1.23-.31-1.67-1.1-.13-.31-.31-.7-.31-1.06,0-.62.53-1.06.97-1.45.62-.53,1.1-1.14,1.8-1.63,1.14-.75,2.2-1.63,3.43-2.29,1.63-.88,3.3-2.2,5.11-2.68,1.06-.31,2.07-.92,3.17-1.06,1.23-.17,2.42-.22,3.65-.22,1.32,0,2.11.17,2.11,1.71,0,1.19-.84,1.67-.84,2.07.22.31.35.18.35.7,0,.44-.13.79-.49,1.1-.75.66-1.36,1.58-2.24,2.11-.57.31-.66.31-.88.88-.13.31-.4.57-.4.92,0,.7.66,1.23,1.32,1.23,1.54,0,2.16-.4,3.52-.66,1.1-.22,2.07-.79,3.12-1.23,1.19-.48,2.38-.88,3.52-1.41.62-.31,2.07-1.06,2.68-1.06.18,0,.4.09.4.26,0,.4-1.45.97-1.8,1.15M99.59,54.12c-.57,0-1.1-.13-1.67-.13-.92,0-2.07,1.06-2.99,1.41-1.19.44-2.02,1.5-3.21,1.98-1.01.44-1.89,1.28-2.77,1.94-.57.44-.71,1.15-1.19,1.67-.09.09-.22.22-.22.35,0,.4.79.66,1.1.66.48,0,.92-.09,1.36-.31,1.19-.57,2.42-1.01,3.61-1.54,1.19-.48,2.2-1.05,3.17-1.89.57-.53,1.06-1.01,1.85-1.23.75-.22,1.89-1.06,1.89-1.89,0-.53-.4-1.01-.93-1.01"/>
        <path class="cls-1" d="M132.11,60.63c-.92.4-1.85.7-2.73,1.23-.97.62-2.16.79-3.12,1.36-.79.44-1.5.88-2.33,1.14-1.89.62-3.48,1.89-5.46,2.11-.66.09-1.41.09-1.98.31-.31.13-.57.13-.88.13-1.1,0-2.55-.62-2.55-1.89,0-1.54,1.89-2.16,2.69-3.21.57-.79,1.23-1.06,1.98-1.63.49-.35.79-.84,1.19-1.23.18-.13.35-.26.53-.44.18-.13.4-.35.4-.62,0-.22.04-.4.04-.62,0-.7-1.37-1.1-1.94-1.1-.48,0-.88.26-1.28.53-.97.66-2.46,1.72-3.52,2.07-.48.18-.97.48-1.41.79-.53.35-2.77,1.45-3.3,1.45-.18,0-.4-.09-.4-.31,0-.35,2.02-1.19,2.42-1.45.7-.48,1.41-.88,2.11-1.32.61-.4,1.01-1.06,1.67-1.45.62-.44,1.36-1.54,1.36-2.29,0-.44-.18-.79-.18-1.23,0-.88.48-1.41,1.32-1.54.79-.13,1.54-.53,2.29-.53.66,0,1.06.66,1.06,1.23,0,1.19-1.36,1.23-1.36,2.07,0,.13.04.35.18.44.18.13,1.36.57,1.63.62,1.01.26,1.8.97,1.8,2.07,0,1.8-1.71,3.17-2.95,4.31-.31.26-.62.57-.88.92-.35.57-.88.97-1.36,1.45-.09.09-.31.22-.31.35,0,.4.75.4,1.01.4,1.45,0,4.27-.7,5.63-1.32l.84-.35.79-.22c1.32-.57,2.6-1.36,3.96-1.85.62-.18,1.19-.44,1.8-.7.44-.22,2.11-1.06,2.46-1.06.13,0,.35.09.35.26,0,.4-1.23.97-1.59,1.1"/>
        <path class="cls-1" d="M164.54,59.93c-.35,0-.66.18-.92.35-1.23.7-2.6.97-3.83,1.59-.57.26-1.1.57-1.72.75-1.67.44-3.17,1.1-4.93,1.1-1.14,0-2.29-.09-2.29-1.54,0-1.32,1.23-2.73,2.25-3.48.84-.62.92-1.76,1.54-2.16.75-.53,1.58-1.45,1.71-2.42.09-.53.26-1.05.26-1.58,0-1.1-1.06-1.58-1.98-1.58s-1.67.31-2.38.79c-1.89,1.28-4.05,2.24-5.81,3.79-1.19,1.01-3.17,1.58-4.09,2.55-.18.18-.4.44-.66.44-.13,0-.22-.09-.22-.22,0-.57.84-1.36,1.32-1.63,1.06-.62,2.07-2.6,3.17-3.48,1.14-.92,2.11-1.98,3.08-3.08,1.32-1.54,2.82-2.9,4.18-4.45.67-.78,1.35-1.53,2.06-2.26,0-.01.01-.02.02-.03,0,0,.02-.03.03-.06t0-.02c.02-.05.04-.1.05-.16,0-.03.01-.06.02-.09,0-.03,0-.04.01-.04,0-.06-.01-.13-.01-.18,0,0,0-.01,0-.02,0,0,0-.02,0-.03,0-.04-.02-.08-.04-.12,0,0,0,0,0-.01,0-.02-.02-.04-.02-.04-.02-.04-.04-.07-.06-.1,0-.01-.04-.06-.05-.08,0,0-.01-.01-.02-.02,0,0,0,0,0,0h0c-.86-.12-1.76.09-2.58.34-.41.13-.81.28-1.2.46-1.25,1.19-2.22,2.58-3.34,3.82-1.89,2.11-3.61,4.49-5.81,6.34-1.8,1.54-3.78,3.04-5.9,4.09-.66.31-1.28.66-1.94,1.01-.62.35-1.19.7-1.89.97-.26.13-2.2,1.1-2.2,1.28s.31.26.44.26c.48,0,2.64-1.14,3.12-1.45.75-.48,1.63-.57,2.33-1.06.44-.27,1.1-.66,1.63-.66.13,0,.22.04.22.22,0,.22-1.01,1.19-1.19,1.5-.53.75-1.06,1.36-1.72,1.98-.53.48-1.67,1.98-1.67,2.68,0,.57,1.36.79,1.8.79.27,0,.4,0,.57-.18.48-.44.92-1.01,1.36-1.5.53-.57,1.23-.88,1.85-1.32l1.37-1.01c1.14-1.01,2.38-1.8,3.56-2.73,1.23-.97,2.64-1.58,3.78-2.6,1.06-.92,2.33-1.41,3.61-1.98.35-.18,1.36-.97,1.63-.97.18,0,.22.18.22.31,0,.62-.79,2.29-1.1,2.95-.57,1.14-1.63,2.11-2.6,2.99-1.1,1.01-3.26.4-3.26,1.23,0,.66.57.57.97.7.92.35,1.41,1.94,1.72,2.77.57,1.41,1.23.66,2.11,1.36.31.22.44.31.84.31,1.45,0,2.86-.79,4.23-1.19.88-.22,1.67-.49,2.46-.93.97-.61,2.16-.84,3.17-1.36.62-.31,1.28-.49,1.89-.88.22-.13,1.19-.57,1.19-.84,0-.13-.26-.22-.35-.22"/>
      </g>
    </g>
  </g>
</svg>