<?xml version="1.0" encoding="UTF-8"?>
<svg id="Layer_2" xmlns="http://www.w3.org/2000/svg" xmlns:xlink="http://www.w3.org/1999/xlink" viewBox="0 0 288 184.09">
  <defs>
    <style>
      .cls-1, .cls-2 {
        fill: none;
      }

      .cls-3 {
        mask: url(#mask);
      }

      .cls-4 {
        fill: #d1d3d4;
      }

      .cls-5 {
        fill: url(#linear-gradient-8);
      }

      .cls-6 {
        fill: url(#linear-gradient-7);
      }

      .cls-7 {
        fill: url(#linear-gradient-5);
      }

      .cls-8 {
        fill: url(#linear-gradient-6);
      }

      .cls-9 {
        fill: url(#linear-gradient-4);
      }

      .cls-10 {
        fill: url(#linear-gradient-3);
      }

      .cls-11 {
        fill: url(#linear-gradient-2);
      }

      .cls-12 {
        fill: #002941;
      }

      .cls-13 {
        fill: url(#linear-gradient);
      }

      .cls-14 {
        mask: url(#mask-2);
      }

      .cls-15 {
        mask: url(#mask-3);
      }

      .cls-16 {
        mask: url(#mask-1);
      }

      .cls-17 {
        fill: #00aeef;
      }

      .cls-18 {
        letter-spacing: .15em;
      }

      .cls-19 {
        letter-spacing: .17em;
      }

      .cls-20 {
        letter-spacing: .17em;
      }

      .cls-21 {
        letter-spacing: .17em;
      }

      .cls-22 {
        letter-spacing: .17em;
      }

      .cls-23 {
        letter-spacing: .17em;
      }

      .cls-24 {
        letter-spacing: .17em;
      }

      .cls-25 {
        clip-path: url(#clippath-1);
      }

      .cls-26 {
        clip-path: url(#clippath-3);
      }

      .cls-27 {
        clip-path: url(#clippath-2);
      }

      .cls-2 {
        stroke: #fff;
        stroke-miterlimit: 10;
        stroke-width: .5px;
      }

      .cls-28, .cls-29, .cls-30, .cls-31 {
        fill: #fff;
      }

      .cls-32 {
        fill: #808285;
      }

      .cls-29 {
        font-size: 6px;
      }

      .cls-29, .cls-30, .cls-31 {
        font-family: AbadiMTPro, 'Abadi MT Pro';
      }

      .cls-30 {
        font-size: 6px;
      }

      .cls-31 {
        font-size: 6px;
      }

      .cls-33 {
        letter-spacing: .09em;
      }

      .cls-34 {
        fill: #939598;
      }

      .cls-35 {
        clip-path: url(#clippath);
      }
    </style>
    <clipPath id="clippath">
      <rect class="cls-1" x="218.01" y="12.17" width="12.24" height="165.94"/>
    </clipPath>
    <linearGradient id="linear-gradient" x1="9.98" y1="204.53" x2="10.98" y2="204.53" gradientTransform="translate(95.54 2598.58) scale(12.24 -12.24)" gradientUnits="userSpaceOnUse">
      <stop offset="0" stop-color="#000"/>
      <stop offset=".08" stop-color="#060606"/>
      <stop offset=".2" stop-color="#1a1a1a"/>
      <stop offset=".34" stop-color="#393939"/>
      <stop offset=".49" stop-color="#656565"/>
      <stop offset=".66" stop-color="#9d9d9d"/>
      <stop offset=".84" stop-color="#e0e0e0"/>
      <stop offset=".91" stop-color="#fff"/>
      <stop offset="1" stop-color="#fff"/>
    </linearGradient>
    <mask id="mask" x="218.01" y="12.17" width="12.24" height="165.94" maskUnits="userSpaceOnUse">
      <rect class="cls-13" x="218.01" y="12.17" width="12.24" height="165.94"/>
    </mask>
    <linearGradient id="linear-gradient-2" x1="9.98" y1="204.53" x2="10.98" y2="204.53" gradientTransform="translate(95.54 2598.58) scale(12.24 -12.24)" gradientUnits="userSpaceOnUse">
      <stop offset="0" stop-color="#002941"/>
      <stop offset=".91" stop-color="#002941"/>
      <stop offset="1" stop-color="#002941"/>
    </linearGradient>
    <clipPath id="clippath-1">
      <rect class="cls-1" x="63.5" y="13.03" width="165.94" height="12.24"/>
    </clipPath>
    <linearGradient id="linear-gradient-3" x1="12.68" y1="210.13" x2="13.68" y2="210.13" gradientTransform="translate(2718.53 180.86) rotate(-90) scale(12.24 -12.24)" xlink:href="#linear-gradient"/>
    <mask id="mask-1" x="63.5" y="13.03" width="165.94" height="12.24" maskUnits="userSpaceOnUse">
      <rect class="cls-10" x="63.5" y="13.03" width="165.94" height="12.24"/>
    </mask>
    <linearGradient id="linear-gradient-4" x1="12.68" y1="210.13" x2="13.68" y2="210.13" gradientTransform="translate(2718.53 180.86) rotate(-90) scale(12.24 -12.24)" xlink:href="#linear-gradient-2"/>
    <clipPath id="clippath-2">
      <rect class="cls-1" x="63.32" y="13.63" width="12.24" height="165.94"/>
    </clipPath>
    <linearGradient id="linear-gradient-5" x1="18.29" y1="207.42" x2="19.29" y2="207.42" gradientTransform="translate(299.77 -2442.34) rotate(-180) scale(12.24 -12.24)" xlink:href="#linear-gradient"/>
    <mask id="mask-2" x="63.32" y="13.63" width="12.24" height="165.94" maskUnits="userSpaceOnUse">
      <rect class="cls-7" x="63.32" y="13.63" width="12.24" height="165.94"/>
    </mask>
    <linearGradient id="linear-gradient-6" x1="18.29" y1="207.42" x2="19.29" y2="207.42" gradientTransform="translate(299.77 -2442.34) rotate(-180) scale(12.24 -12.24)" xlink:href="#linear-gradient-2"/>
    <clipPath id="clippath-3">
      <rect class="cls-1" x="62.67" y="159.16" width="165.94" height="12.24"/>
    </clipPath>
    <linearGradient id="linear-gradient-7" x1="15.58" y1="201.82" x2="16.58" y2="201.82" gradientTransform="translate(-2324.68 -31.93) rotate(90) scale(12.24 -12.24)" xlink:href="#linear-gradient"/>
    <mask id="mask-3" x="62.67" y="159.16" width="165.94" height="12.24" maskUnits="userSpaceOnUse">
      <rect class="cls-6" x="62.67" y="159.16" width="165.94" height="12.24"/>
    </mask>
    <linearGradient id="linear-gradient-8" x1="15.58" y1="201.82" x2="16.58" y2="201.82" gradientTransform="translate(-2324.68 -31.93) rotate(90) scale(12.24 -12.24)" xlink:href="#linear-gradient-2"/>
  </defs>
  <g id="Layer_1-2" data-name="Layer_1">
    <g>
      <rect class="cls-12" width="288" height="184.09"/>
      <g>
        <polygon class="cls-4" points="85.51 25.75 104.87 29.64 172.04 41.3 188.76 41.62 121.78 103.31 116.58 98.11 111.19 103.13 107.29 98.48 100.6 97.92 100.79 73.18 86.86 73.18 88.06 27.78 85.31 26.68 85.51 25.75"/>
        <path class="cls-32" d="M156.79,44.37l-13.64-2.26c-1.51-.25-3.02.1-4.27.99-1.24.89-2.06,2.21-2.31,3.71-.25,1.51.1,3.02.99,4.26.89,1.24,2.21,2.07,3.72,2.32l13.65,2.26c.32.05.63.08.95.08,1.18,0,2.33-.37,3.32-1.07,1.24-.89,2.06-2.21,2.31-3.72.25-1.51-.1-3.02-.99-4.27-.89-1.24-2.21-2.06-3.72-2.31M160.51,50.79c-.43,2.57-2.86,4.31-5.43,3.88l-13.65-2.26c-2.57-.43-4.31-2.86-3.88-5.43.21-1.24.88-2.33,1.91-3.07.81-.58,1.76-.88,2.74-.88.26,0,.52.02.78.07l13.64,2.26c1.24.21,2.33.88,3.07,1.91.73,1.03,1.02,2.28.82,3.52"/>
        <polygon class="cls-32" points="152.18 62.7 152 63.76 156.54 64.57 156.75 63.27 155.41 63.06 155.38 63.27 152.18 62.7"/>
        <rect class="cls-32" x="153.91" y="59.24" width=".76" height=".74" transform="translate(68.64 201.11) rotate(-79.94)"/>
        <rect class="cls-32" x="159.56" y="63.4" width="1.58" height="1.48" transform="translate(-9.83 34.76) rotate(-12.01)"/>
        <rect class="cls-32" x="161.49" y="62.66" width=".68" height="1.68" transform="translate(-9.68 35.11) rotate(-12.02)"/>
        <rect class="cls-32" x="167.98" y="42.4" width="1.09" height="3.42" transform="translate(95.45 202.25) rotate(-79.87)"/>
        <path class="cls-32" d="M123.98,49.07l-1.93-.3c-.24-.04-.41-.27-.37-.51l.48-3.12c.04-.24.27-.41.51-.37l1.93.3c.24.04.41.27.38.51l-.48,3.12c-.04.24-.27.41-.51.38"/>
        <path class="cls-32" d="M120.85,48.51l-1.93-.3c-.24-.04-.41-.27-.38-.51l.48-3.12c.04-.24.27-.41.51-.37l1.93.3c.24.04.41.27.38.51l-.48,3.12c-.04.24-.27.41-.51.38"/>
        <path class="cls-32" d="M117.69,47.98l-1.93-.3c-.24-.04-.41-.27-.37-.51l.48-3.12c.04-.24.27-.41.51-.37l1.93.3c.24.04.41.27.38.51l-.48,3.12c-.04.24-.27.41-.51.38"/>
        <path class="cls-32" d="M118.46,43.45l-1.93-.3c-.24-.04-.41-.27-.37-.51l.48-3.12c.04-.24.27-.41.51-.37l1.93.3c.24.04.41.27.38.51l-.48,3.12c-.04.24-.27.41-.51.38"/>
        <path class="cls-32" d="M119.27,38.95l-1.93-.3c-.24-.04-.41-.27-.37-.51l.48-3.12c.04-.24.27-.41.51-.37l1.93.3c.24.04.41.27.38.51l-.48,3.12c-.04.24-.27.41-.51.38"/>
        <path class="cls-32" d="M174.13,44.47l-4.96,4.87,4.81,4.91,4.96-4.87-4.81-4.9ZM169.67,49.38l4.53-4.46.83.84-4.53,4.46-.83-.84ZM171.4,51.16l4.53-4.46.83.84-4.53,4.46-.83-.84ZM173.92,53.74l-.83-.84,4.53-4.46.83.84-4.53,4.46Z"/>
        <path class="cls-32" d="M166.93,46.51c-1.6-2.24-3.98-3.72-6.7-4.17l-19.09-3.17c-1.61-.27-3.23-.15-4.74.33l.24-1.61-15.96-2.64-1.41,8.65,7.51,1.31-.43,3.31c-1.03,7.97,4.36,15.29,12.28,16.68l2.56.42-1.24,7.46c-.12.71.35,1.38,1.06,1.51l8.94,1.62c.59.11,1.19-.08,1.61-.5l3.28-3.25c.36-.36.6-.82.68-1.33l.46-3.05,1.97.33c.57.09,1.09.35,1.52.72l1.14,1.01.66-.75-1.14-1.01c-.57-.5-1.27-.84-2.02-.96h-.05s.11-.68.11-.68c.02,0,.04,0,.06,0,.76,0,1.38-.62,1.38-1.38s-.62-1.38-1.38-1.38-1.38.62-1.38,1.38c0,.02,0,.04,0,.06l-.26.03-.36-.07.02-.38-4.75-.88-.05.33-.46-.09.41-2.62,5.44.9c.57.09,1.13.14,1.69.14,4.95,0,9.33-3.58,10.17-8.62.45-2.72-.18-5.45-1.79-7.69M158.23,65c.21,0,.38.17.38.38s-.17.38-.38.38-.38-.17-.38-.38.17-.38.38-.38M129.19,36.84l1.17.18-.99,6.28-1.17-.18.99-6.28ZM121.17,42l-1.17-.18.99-6.28,1.17.18-.99,6.28ZM123.7,42.39l-1.17-.18.99-6.28,1.17.19-.99,6.28ZM126.62,42.88l-1.17-.18.99-6.28,1.17.18-.99,6.28ZM138.8,64.22c-7.39-1.29-12.42-8.13-11.45-15.57l.37-2.88,2.52-1.05c-.46.91-.78,1.9-.95,2.93-.93,5.61,2.88,10.93,8.48,11.86l12.65,2.1-.7,4.42-10.93-1.81ZM142.22,73.75l-1.17-.18,1.03-6.53,1.17.18-1.03,6.53ZM145.07,74.24l-1.17-.18,1.03-6.53,1.17.18-1.03,6.53ZM147.92,74.74l-1.17-.18,1.03-6.53,1.17.18-1.03,6.53ZM150.73,75.23l-1.17-.18,1.03-6.53,1.17.18-1.03,6.53ZM151.32,65.47l-.05.36,5.59.98-.05-.37.4-.05-.14.85-6.36-1.06.13-.82.48.09ZM166.74,53.87c-.75,4.52-5.04,7.59-9.56,6.84l-19.09-3.17c-4.52-.75-7.59-5.04-6.84-9.56.36-2.19,1.56-4.11,3.36-5.4,1.81-1.29,4-1.8,6.19-1.44l19.09,3.17c2.19.36,4.11,1.56,5.4,3.36,1.29,1.81,1.8,4.01,1.44,6.2"/>
        <polygon class="cls-17" points="172.75 97.74 172.09 96.33 172.28 91.08 173.68 89.96 176.59 89.39 181.56 91.74 184.56 91.92 185.78 93.52 185.59 94.83 184.75 95.21 172.75 97.74"/>
        <path class="cls-17" d="M173.29,97.42c-.12-.25-.24-.51-.35-.76-.07-.15-.14-.32-.22-.47-.2-.35.07.1,0,.13.1-.04.05-1.37.05-1.49.04-1.25.09-2.5.13-3.75-.06.15-.12.29-.18.44.34-.27.67-.54,1.01-.81.08-.07.17-.13.25-.2.22-.2.04,0,0-.03.1.12-.28.04-.02.05.07,0,.15-.03.22-.04.86-.17,1.71-.33,2.57-.5-.16-.02-.32-.04-.48-.06,1.46.69,2.93,1.38,4.39,2.07.51.24.88.36,1.44.39l2.45.15c-.18-.1-.36-.21-.54-.31l1.22,1.59c-.02-.16-.04-.32-.06-.48l-.19,1.31c.1-.12.19-.25.29-.37-.2.09-.39.17-.59.26-.08.03-.15.08-.23.1.24-.07.15-.06.1-.05-.18.04-.37.08-.55.12-.9.19-1.8.38-2.71.57-2.34.49-4.67.99-7.01,1.48-.57.12-1.13.24-1.7.36-.79.17-.45,1.37.33,1.21,2.68-.56,5.35-1.13,8.03-1.69,1.26-.26,2.53-.49,3.78-.8.38-.1.84-.25,1.16-.47.32-.22.32-.49.37-.85.04-.32.16-.69.14-1.02-.02-.32-.27-.55-.45-.79-.26-.34-.51-.7-.79-1.03-.44-.52-1.12-.42-1.76-.46-.43-.03-.86-.05-1.29-.08-.14,0-.29-.03-.43-.03-.29.01.2.11.16.06-.11-.11-.41-.19-.55-.26l-1.06-.5c-.79-.37-1.59-.75-2.38-1.12-.43-.21-.94-.56-1.43-.51-.72.07-1.44.28-2.15.42-.64.12-.96.25-1.48.66-.3.24-.7.47-.95.76-.2.23-.19.45-.2.72-.04.87-.06,1.75-.09,2.62-.03.75-.13,1.54-.08,2.28.04.61.48,1.25.74,1.79.34.73,1.42.09,1.08-.63"/>
        <polygon class="cls-17" points="203.4 92.11 203.87 94.92 204.71 95.49 205.84 94.83 205.28 92.67 203.4 92.11"/>
        <path class="cls-17" d="M202.8,92.28c.09.53.18,1.06.26,1.59.05.32.11.64.16.96.01.08.02.16.04.24.05.2.18.33.34.43.26.18.53.35.79.53.18.12.45.11.63,0,.38-.22.75-.44,1.12-.66.24-.14.36-.44.29-.71-.16-.61-.32-1.21-.48-1.82-.03-.1-.05-.21-.08-.31-.07-.25-.24-.4-.49-.47-.32-.1-.64-.19-.96-.29-.29-.09-.58-.17-.87-.26-.31-.09-.69.11-.77.44-.08.34.1.67.44.77.62.19,1.25.38,1.88.56l-.44-.44.56,2.16c.1-.24.19-.47.29-.71l-1.12.66h.63c-.28-.19-.56-.38-.84-.56.1.12.19.25.29.37-.16-.94-.31-1.88-.47-2.81-.05-.32-.47-.53-.77-.44-.35.11-.49.42-.44.77"/>
        <polygon class="cls-17" points="208.65 88.92 207.53 94.08 209.31 96.99 210.71 96.8 213.43 100.27 218.96 102.33 218.96 101.02 216.81 99.61 216.34 97.55 219.25 95.02 219.06 93.71 209.68 91.36 209.59 89.02 208.65 88.92"/>
        <path class="cls-17" d="M208.05,88.76l-1.06,4.84c-.06.28-.13.51,0,.8.11.26.31.51.46.75.44.72.88,1.43,1.32,2.15.1.17.33.34.54.31.47-.06.94-.12,1.41-.19-.15-.06-.29-.12-.44-.18.59.75,1.17,1.5,1.76,2.25.42.54.77,1.2,1.43,1.45,1.77.68,3.56,1.33,5.34,1.99.39.14.79-.23.79-.6,0-.73.19-1.51-.48-1.96-.66-.44-1.32-.86-1.99-1.29.1.12.19.25.29.37-.16-.69-.31-1.38-.47-2.06l-.16.61c.78-.68,1.56-1.36,2.34-2.03.29-.26.73-.51.75-.94.03-.47-.14-1.01-.21-1.48-.03-.2-.25-.39-.44-.44-3.12-.78-6.25-1.56-9.38-2.34.15.2.31.4.46.6l-.09-2.34c-.01-.36-.28-.59-.62-.62l-.94-.09c-.8-.08-.79,1.17,0,1.25l.94.09c-.21-.21-.42-.42-.62-.62l.09,2.34c.01.27.19.53.46.6,3.12.78,6.25,1.56,9.38,2.34l-.44-.44.19,1.31c.05-.2.11-.4.16-.61-.97.84-1.94,1.69-2.91,2.53-.17.15-.21.4-.16.61.1.43.2.86.29,1.29.1.42.11.87.47,1.15.66.53,1.44.94,2.15,1.4-.1-.18-.21-.36-.31-.54v1.31c.26-.2.53-.4.79-.6-1.62-.61-3.24-1.21-4.86-1.82-.08-.03-.57-.29-.66-.24.21-.12.34.32.16.02-.09-.16-.24-.3-.35-.44l-1.93-2.46c-.23-.29-.38-.59-.79-.61-.44-.02-.95.13-1.39.19.18.1.36.21.54.31-.59-.97-1.19-1.94-1.78-2.91.02.16.04.32.06.48.38-1.72.75-3.44,1.12-5.16.17-.78-1.03-1.12-1.21-.33"/>
        <polygon class="cls-17" points="223.65 102.52 223.47 102.99 224.21 104.49 225.34 104.11 226.93 104.58 227.59 104.11 226.47 102.89 223.65 102.52"/>
        <path class="cls-17" d="M223.05,102.35c-.1.25-.26.52-.19.8.05.17.16.35.24.51.19.38.38.76.57,1.14.12.24.46.37.7.29l1.12-.38h-.33l1.38.41c.26.08.52.13.76-.05.2-.14.39-.28.59-.42.33-.24.42-.67.13-.98-.21-.23-.42-.46-.63-.68-.13-.14-.25-.28-.38-.41-.16-.17-.3-.27-.56-.31-.67-.09-1.33-.18-2-.27-.27-.04-.54-.07-.81-.11-.33-.04-.64.32-.62.62.02.38.28.58.62.62l2.81.38c-.15-.06-.29-.12-.44-.18l1.12,1.22c.04-.33.09-.66.13-.98l-.66.47c.16-.02.32-.04.48-.06-.51-.15-1.01-.31-1.53-.45-.29-.08-.51.02-.77.1-.25.08-.5.17-.75.25.24.1.47.19.71.29l-.75-1.5c.02.16.04.32.06.48l.19-.47c.12-.3-.13-.7-.44-.77-.36-.08-.64.11-.77.44"/>
        <polygon class="cls-17" points="173.59 132.52 174.25 136.74 175.84 136.74 176.03 134.96 175.28 132.52 174.15 131.77 173.59 132.52"/>
        <path class="cls-17" d="M172.99,132.68c.19,1.23.38,2.46.57,3.69.03.17.05.35.08.53.04.27.35.46.6.46h1.59c.36,0,.59-.29.62-.62.04-.41.09-.82.13-1.22.04-.33.08-.59-.02-.91-.15-.48-.3-.97-.45-1.45-.12-.39-.19-.93-.54-1.18-.37-.26-.75-.5-1.12-.75-.3-.2-.66-.03-.85.22-.19.25-.38.5-.56.75-.2.27-.04.7.22.86.32.19.65.05.85-.22l.56-.75c-.29.07-.57.15-.85.22l1.12.75c-.1-.12-.19-.25-.29-.37.18.6.37,1.19.55,1.79.05.15.09.3.14.45.01.04.08.31.05.12-.02-.15,0-.06-.02-.02-.01.06-.01.12-.02.18-.02.19-.04.38-.06.57-.03.32-.07.64-.1.96.21-.21.42-.42.62-.62h-1.59c.2.15.4.31.6.46-.19-1.23-.38-2.46-.57-3.69-.03-.18-.05-.35-.08-.53-.05-.33-.47-.52-.77-.44-.36.1-.49.43-.44.77"/>
        <path class="cls-17" d="M135.24,93.29c-.34-.34-.72-.67-1.04-1.04-.07-.09-.23-.32-.15-.09-.06-.17.04-.52.06-.69.02-.25,0-.57.07-.81.07-.27-.11.2.04-.1.21-.4.6-.77.88-1.13.08-.1.12-.26,0-.35-.39-.32-1-.73-1.19-1.07-.19-.35-.21-.75-.25-1.14-.15-1.42-.21-2.85-.31-4.28-.09-1.24-.01-2.66-.28-3.88-.17-.75-.69-1.49-1.03-2.17-1.06-2.1-1.95-4.14-3.43-5.95-1.05-1.28-2.09-2.56-3.14-3.84-.58-.71-1.03-.85-1.9-1.23-.8-.35-1.59-.69-2.39-1.03-.31-.14-.74-.43-1.09-.45-.89-.05-2.14.47-2.93.9-.55.3-1.1.66-1.54.74-.36.06-.75.06-1.12.09-.45.04-.01.13-.3-.02-1.24-.67-2.38-1.87-3.49-2.74-1.91-1.49-3.28-3.48-4.81-5.35-.13-.16-.32-.33-.42-.51-.18-.32,0,.19-.03-.14-.05-.65-.02-1.6.12-2.25.16-.72.95-1.78,1.04-2.79.11-1.28-.23-2.32-.67-3.53-.32-.91-.54-1.15-.34-1.99.16-.68.15-1.03.06-1.74-.08-.62-.17-1.24-.25-1.86-.05-.36-.1-.66-.05-.94.05-.29.34-.65.29-.95-.04-.19-.26-.36-.38-.5-.12-.14-.26-.28-.37-.42-.07-.08-.14-.16-.21-.24.04.12.06.12.05.03-.19-.9.19-1.25.69-1.75.1-.1.08-.25,0-.35-.21-.26-.74-.82-.79-.97-.07-.2.02-1.03.02-1.42,0-.95,0-1.89-.03-2.83-.04-.92-.31-1.75-.39-2.66-.08-.89.2-1.83,0-2.7-.21-.94-.6-1.61-1.22-2.29-.57-.63-1.13-1.44-1.83-1.92-.73-.5-1.6-.77-2.33-1.28-1.04-.72-2.08-1.45-3.13-2.18-.21-.14-.47-.28-.65-.46-.26-.25-.02.09-.1-.12-.21-.52-.15-1.16-.35-1.68-.37-.98-1.03-1.9-1.53-2.82-.15-.28-.59-.03-.43.25.48.88,1.13,1.77,1.48,2.71.23.62.11,1.48.54,2,.24.29.75.52,1.06.74l1.79,1.25c.68.48,1.34.96,2.08,1.34,1.01.52,1.52.85,2.28,1.68.91.99,1.3,1.4,1.74,2.56.36.94.04,1.94.11,2.93.06.86.35,1.66.38,2.54.04,1.01.04,2.02.04,3.04,0,.46-.13,1.12.03,1.55.15.39.62.78.88,1.1v-.35c-.62.62-1.18,1.52-.74,2.43.13.28.46.49.65.74.12.17.17.34.15.09.01.15-.15.44-.19.58-.19.59-.07,1.02.02,1.64.08.58.16,1.15.23,1.73.1.75-.17,1.21-.21,1.95-.05.9.61,2.02.88,2.92.39,1.31.38,2.28-.15,3.42-.21.46-.53.94-.63,1.43-.14.65-.11,1.44-.12,2.11-.01.89.82,1.51,1.36,2.17.91,1.11,1.76,2.36,2.77,3.38.7.71,1.61,1.29,2.39,1.9.65.51,1.29,1.01,1.94,1.52.23.18.48.46.76.53,1.15.29,2.29-.4,3.23-.92.51-.28.93-.39,1.5-.53.36-.09.75-.25,1.12-.28.09,0,.18-.02-.05-.05.1.01.23.1.31.14,1.35.59,2.82,1.07,4.11,1.78.66.37,1.32,1.43,1.88,2.11.96,1.17,2,2.31,2.89,3.54.46.63.92,1.71,1.33,2.53.66,1.31,1.64,2.71,2.08,4.11-.03-.1-.03-.04,0,.13.04.27.04.56.06.83.07.89.13,1.78.2,2.67.11,1.56.14,3.16.35,4.72.16,1.24.61,1.58,1.57,2.36v-.35c-.3.39-.76.8-.97,1.25-.16.34-.14.77-.17,1.15-.03.35-.1.63.04.93.22.45.88.88,1.24,1.24.23.23.58-.13.35-.35"/>
        <polygon class="cls-17" points="112.98 64.36 111.5 62.89 109.96 60.35 108.76 58.25 107.14 57.26 105.88 57.33 103.98 59.51 104.19 61.48 105.74 62.18 107.57 62.82 111.36 64.5 112.77 64.85 112.98 64.36"/>
        <path class="cls-17" d="M113.16,64.19l-.99-.99c-.15-.15-.32-.3-.46-.46-.06-.07.04.06,0,0-.04-.06-.08-.13-.12-.19-.47-.77-.96-1.54-1.42-2.32-.23-.38-.44-.78-.66-1.17-.18-.32-.34-.78-.62-1.03-.33-.29-.8-.49-1.18-.72-.13-.08-.29-.21-.44-.27-.17-.06-.37-.02-.55-.01-.33.02-.82-.06-1.08.18-.36.33-.66.76-.98,1.13-.28.31-.63.63-.85.98-.18.28-.02.77.01,1.09.03.26.06.53.09.79.01.14,0,.34.1.45.1.11.32.16.44.22.28.13.56.25.84.38.31.14.61.25.93.36.27.09.54.19.81.28.1.04.21.07.31.11.03.01.23.08.1.03.98.39,1.94.86,2.9,1.29.32.14.63.31.96.42.45.15.94.24,1.4.35.1.02.24-.01.28-.12l.21-.49c.12-.29-.31-.55-.43-.25l-.21.49c.1-.04.19-.08.28-.12-.3-.08-.61-.15-.91-.23-.15-.04-.3-.07-.45-.11-.02,0,.04.02-.07-.03-.66-.27-1.31-.58-1.97-.87-1.14-.51-2.26-.96-3.44-1.37-.05-.02-.11-.04-.17-.06-.03-.01.08.03,0,0-.16-.07-.33-.15-.49-.22-.34-.15-.67-.31-1.01-.46.04.07.08.14.12.22-.06-.55-.12-1.11-.18-1.66,0-.04,0-.25-.03-.28.02.01-.16.19-.02.08.19-.14.34-.39.5-.57.41-.47.93-.93,1.27-1.45.14-.22-.08.07-.09-.02,0,0,.32-.02.33-.02.3-.02.61-.02.91-.05-.1,0-.12-.05.02.04.12.08.26.16.38.23.29.18.59.36.88.54.07.04.15.09.22.13-.14-.1-.06-.06,0,.06.14.27.3.53.45.8.52.91,1.05,1.81,1.6,2.7.24.39.44.84.77,1.17.45.46.91.91,1.36,1.36.23.23.58-.13.35-.35"/>
        <path class="cls-28" d="M204.31,145.56c.31-.08.66-.18.76-.3.12.05.25.1.35.13,1.03.45,2.05.9,3.08,1.34.84.37,1.6.47,2.52.61,4.37.67,8.75,1.34,13.12,2.01,1.32.2,2.64.4,3.96.61.79.12,1.13-1.08.33-1.21-3.38-.52-6.76-1.03-10.14-1.55-2.16-.33-4.31-.66-6.47-.99-.61-.09-1.22-.22-1.83-.28-.09-.01-.19-.03-.29-.04.02-.01-.45-.18-.57-.23-1.1-.48-2.2-.96-3.31-1.44-.86-.37-1.36-.07-2.23.25-.19.07-.4.21-.44.44-.12.78-.3,1.6-.45,2.43l-16.89-2.77c.03-.18.07-.35.1-.53.04-.23.09-.46.13-.69,0-.01,0-.02,0-.03.84-.65,1.62-1.39,2.43-2.08.79-.68.7-1.61.85-2.61.68-4.63,1.37-9.27,2.05-13.9l.61-4.15c.12-.79-1.09-1.13-1.21-.33-.51,3.46-1.02,6.92-1.53,10.39-.34,2.31-.68,4.62-1.02,6.92-.1.72-.21,1.43-.32,2.15-.02.15-.05.3-.07.45-.02.01-.04.02-.08.04-.52.32-.98.84-1.44,1.24-.39.33-.91.66-1.23,1.06-.37.46-.46,1.2-.54,1.87l-25.49-4.18c.17-5.29.35-10.59.52-15.88.22,0,.44.01.64.03.99.08,1.98.15,2.96.23.8.06.8-1.19,0-1.25l-2.25-.18c-.44-.03-.88-.07-1.31-.1.06-1.91.13-3.83.19-5.74,1.71-.08,3.42-.17,5.13-.25,1.63-.08,3.17-.56,4.75-.94.43-.1.86-.19,1.29-.31.35-.1.54-.31.78-.57.32-.33.7-.61.71-1.1.01-.43.02-1.06-.11-1.48-.1-.31-.44-.48-.7-.65-.07-.05-.14-.09-.2-.14.53-.46,1.05-.93,1.58-1.39.21-.18.23-.53.1-.76-.87-1.48-1.74-2.95-2.6-4.43-.3-.5-.56-1.08-.91-1.55-.29-.39-.92-.36-1.37-.31-.42.05-.8.39-1.15.61-.11.07-.22.13-.33.21-.02.01-.06.04-.1.06-.03,0-.06.01-.08.02-.13.01-.26.05-.39.07-.47.09-.95.18-1.42.27-.27.05-.46.34-.46.6,0,.47-.12,1.1.08,1.53.14.3.4.59.58.86.37.55.75,1.11,1.12,1.66.21.31.39.66.68.89.71.58,1.56,1.05,2.32,1.57.68.46,1.36.92,2.03,1.38.02.28.04.55.06.83-.07.07-.14.14-.2.21-.1.1-.2.2-.3.31-.02.02-.05.05-.09.08-.01,0-.02,0-.03,0-.2.03-.39.09-.58.14-1.13.28-2.26.55-3.4.83-.19.05-.38.09-.57.14-.02,0-.12.03-.19.04-.04,0-.07,0-.09,0-.17,0-.33.02-.5.02-1.14.06-2.28.11-3.42.17l-2,.1c.04-1.33.09-2.65.13-3.98.08-2.46.16-4.92.24-7.39.01-.34-.3-.62-.62-.62-.93,0-1.89-.07-2.82,0-.59.05-1.08.35-1.61.61-1.79.86-3.58,1.71-5.37,2.57-.2.1-.3.33-.31.54-.11,1.81-.31,3.63-.33,5.45,0,.6.23,1.03.46,1.59.35.84.63,1.79,1.07,2.58.23.41.55.64.91.95.8.68,1.6,1.37,2.4,2.05,1.36,1.16,2.7,2.62,4.2,3.6.05.03.1.04.15.07-.1,3.16-.21,6.33-.31,9.49-.05,1.39-.09,2.77-.14,4.16l-.62-.29c-.16-.07-.32-.15-.48-.23-.27-.12-.49-.07-.75,0-.43.1-.89.16-1.31.29-.27.09-.37.27-.48.49-.1.21-.2.43-.3.64-.11.23-.21.46-.32.69l-7.63-1.25c-.44-7.27-.87-14.55-1.31-21.82-.08-1.37-.5-2.71-.8-4.05-.18-.78-1.38-.45-1.21.33.21.91.41,1.83.62,2.74.03.13.1.5.11.5,0,.1.01.19.02.28.07,1.51.18,3.01.27,4.52.28,4.73.57,9.45.85,14.18.06,1.04.12,2.07.19,3.11l-46.04-7.56c.46-1.13.92-2.27,1.38-3.4.07-.17.14-.35.21-.53.03-.03.06-.06.09-.08.75-.49,1.42-1.3,2.07-1.9,3.37-3.1,6.74-6.19,10.11-9.29,5.24-4.82,10.48-9.63,15.72-14.45l18.55-17.05c6.2-5.7,12.39-11.39,18.59-17.09,5.28-4.85,10.56-9.71,15.84-14.56,3.44-3.16,6.87-6.32,10.31-9.47,1.77-1.63,3.55-3.26,5.32-4.89,2.48-2.28,4.94-4.58,7.44-6.84.02,0,.04-.01.07-.02.48-.16.94-.39,1.4-.59.29-.12.59-.28.9-.38.03,0,.24-.04.38-.05,1.82-.1,3.63-.22,5.45-.33,1.21-.07,2.35-.3,3.42-.93.83-.49,1.25-2.02,1.66-2.84.93-1.85,1.87-3.69,2.81-5.54.34-.67.68-1.35,1.02-2.02.09-.18.22-.37.28-.56,1.39-.49,2.73-1.18,4.08-1.77.74-.32.1-1.4-.63-1.08l-1.88.82c-.71.31-1.65.54-2.27.98-.72.52-1.09,1.85-1.48,2.61-.93,1.84-1.87,3.69-2.8,5.53-.37.72-.73,1.44-1.09,2.16-.09.17-.24.38-.29.56-.31.06-.81.36-1.02.44-.21.09-.43.18-.65.26-.21.07-.06.05-.06.05-.61.12-1.3.08-1.93.12-1.63.1-3.41,0-5.02.3-2.55.46-4.16,2.23-5.96,3.89-.39.36-.79.73-1.18,1.09-1.97-2.28-3.95-4.56-5.92-6.83-1.44-1.66-2.88-3.32-4.31-4.98-.52-.6-1.04-1.2-1.56-1.8-.12-.14-.34-.5-.55-.71,0-.18-.04-.43-.04-.55,0-.15.05-.49.04-.73.43-.2.9-.76,1.25-1.04.31-.25.62-.51.92-.76.62-.51-.27-1.39-.88-.88-.69.57-1.38,1.13-2.07,1.7-.69.57-.53,1.36-.51,2.22.02.96,1.02,1.73,1.62,2.43,2.94,3.4,5.89,6.79,8.83,10.19l2.26,2.6c-.16.15-.32.3-.48.45l-12.34-14.66c-.59-.7-1.18-1.4-1.77-2.11-.52-.62-1.4.27-.88.88,4.14,4.92,8.29,9.85,12.43,14.77.55.65,1.1,1.31,1.65,1.96-1.2,1.1-2.4,2.2-3.6,3.31-5.53-6.58-11.07-13.15-16.6-19.73-.81-.96-1.61-1.92-2.42-2.88-.52-.62-1.4.27-.88.88,5.66,6.73,11.32,13.46,16.99,20.18.67.79,1.33,1.59,2,2.38-.21.2-.43.39-.64.59-2.86,2.63-5.72,5.25-8.58,7.88-4.95,4.55-9.9,9.1-14.84,13.64l-18.19,16.72c-6.3,5.79-12.6,11.58-18.9,17.37-5.57,5.11-11.13,10.23-16.7,15.35l-11.67,10.72c-1.51,1.39-3.57,2.7-4.35,4.64l-1.4,3.44-32.95-5.41-.49,2.96,17.41,2.86c0,.28-.01.55-.02.83-2.96-.49-5.91-.99-8.86-1.48-.88-.15-2.17.2-2.35,1.23-.11.59.03,1.33.05,1.92.11,4.35.22,8.7.34,13.05-1.81.04-3.61.08-5.42.12-.27,0-.54.01-.81.02-.8.02-.81,1.27,0,1.25,1.89-.04,3.77-.08,5.65-.12.2,0,.41,0,.61-.01.08,2.97.15,5.94.23,8.91.06,2.45.13,4.89.19,7.33.02.8,1.27.81,1.25,0-.25-9.48-.49-18.96-.74-28.44l-.1-3.73c.09-.06.18-.12.26-.19.09-.08.15-.12.19-.15.15.02.32.03.43.05,1.17.19,2.33.39,3.5.58,1.85.31,3.69.61,5.54.92-.04,2.22-.08,4.43-.22,6.64,0,.06,0,.08,0,.09-.04.28-.1.56-.15.84-.18,1.01-.36,2.03-.55,3.04-.21,1.18-.5,2.37-.59,3.57-.14,1.75-.43,3.58-.38,5.33.02.9.5,2.02,1.09,2.71.64.75,1.3,1.48,1.97,2.21-.71.78-1.41,1.55-2.12,2.33-.12.13-.24.26-.35.39-.22.24-.26.65,0,.88.24.22.65.26.88,0,.81-.9,1.63-1.79,2.44-2.69,1.55,1.65,3.12,3.28,4.66,4.92.45.49.89,1.05,1.39,1.49.04.04.07.06.09.09.09.22.16.44.25.66.65,1.74,1.3,3.49,1.95,5.23.28.75,1.49.42,1.21-.33-.56-1.49-1.11-2.99-1.67-4.48-.35-.94-.57-1.66-1.24-2.38-1.36-1.47-2.73-2.94-4.1-4.41.72-.75,1.44-1.49,2.14-2.26.32-.35.25-.8.27-1.24.02-.8.05-1.59.07-2.39.02-.55.03-1.11.05-1.66.02-.8-1.23-.8-1.25,0-.04,1.51-.09,3.02-.13,4.52-.67.7-1.33,1.41-2,2.11-.9-.96-1.79-1.93-2.69-2.89-.35-.37-.69-.76-1.05-1.12,0,0,0,0-.01-.01,0-.01,0-.02,0-.03-.14-.45-.36-.88-.51-1.33-.13-.38-.07,0-.07-.38,0-.35.05-.71.07-1.06.08-1.06.15-2.11.23-3.17.03-.35.06-.7.08-1.05,0-.1.01-.17.02-.22.73.13,1.46.25,2.19.38.14.02.27.05.41.07.32.06.69-.08.77-.44.07-.3-.09-.71-.44-.77-.91-.16-1.82-.32-2.72-.47.05-.28.11-.56.16-.84.29-1.64.69-3.29.89-4.94.35-2.89.24-5.9.29-8.83l84.21,13.82c.29,2.42.57,4.83,1.22,7.18,1.3,4.73,2.59,9.46,3.89,14.19.38,1.4.77,2.81,1.16,4.21.21.78,1.42.45,1.21-.33-.97-3.54-1.94-7.07-2.91-10.61-.63-2.31-1.27-4.61-1.9-6.92-.19-.71-.39-1.41-.58-2.12-.05-.17-.1-.34-.14-.51-.01-.05-.02-.06-.02-.06,0-.02,0-.05-.02-.1-.26-1.57-.44-3.15-.63-4.73l34.33,5.64c.11,1.54.59,3.18.84,4.67.21,1.26.15,3.12,1.01,4.14.69.81,1.37,1.67,2.11,2.44.01.01.07.09.13.17-.03.25.06.72.07.88.08,2.09.16,4.18.24,6.27.03.8,1.28.81,1.25,0-.07-1.82-.14-3.65-.21-5.47-.02-.6.06-1.33-.07-1.91-.16-.68-.91-1.29-1.36-1.8-.37-.43-.74-.86-1.11-1.28-.08-.1-.17-.19-.25-.29-.15-.69-.24-1.4-.36-2.09-.31-1.82-.54-3.69-.91-5.5l24.47,4.02.49-2.96-24.78-4.07c.1-.66.2-1.32.29-1.98M168.43,104.64h0s.12-.08.12-.08c.02.06-.04.07-.11.08.1,0,.2.01.3,0l3.07,5.21c-.18.16-.36.32-.54.48-1.09-1.67-2.18-3.34-3.27-5.01-.06-.09-.11-.17-.17-.26.21-.13.41-.27.58-.41,0,0,.01,0,.03-.02-.11,0-.22-.03,0,0M167.67,109.26s-.05-.03-.08-.06c-.05-.07-.12-.15-.14-.19-.35-.52-.7-1.03-1.05-1.55-.18-.26-.35-.52-.53-.78-.07-.1-.16-.31-.26-.42,0-.09-.02-.19-.02-.22v-.27c.35-.05.72-.1,1.07-.18,1.1,1.68,2.2,3.36,3.29,5.04l.21.32c-.83-.56-1.67-1.13-2.5-1.69M157.94,122.1c-.8-.69-1.61-1.38-2.41-2.06-1.24-1.06-2.46-2.14-3.71-3.18-.05-.11-.09-.22-.14-.33l-.59-1.43c-.19-.45-.36-.92-.57-1.36-.05-.1-.1-.21-.13-.31,0-.01,0,0,0-.03-.13-1.69.17-3.52.31-5.24,1.61-.77,3.22-1.54,4.83-2.31.37-.18.78-.33,1.13-.54.03-.02.04-.03.06-.04.01,0,.03.01.06.02.69.11,1.45.05,2.18.02-.19,5.71-.38,11.43-.56,17.14-.21-.15-.4-.29-.45-.33M71.63,130.92s.08.03.13.05c-.04,0-.08-.02-.13-.05M71.94,130.95s.02,0,0,0M155.32,138.59c.36-.08.72-.16,1.08-.24.47.22.94.44,1.41.66.01,0,.03,0,.04.01,0,.31-.02.62-.03.94l-2.91-.48c.14-.3.28-.59.41-.89"/>
        <path class="cls-28" d="M107.86,154.21l-.56-1.49c-.05-.14-.18-.52-.18-.45-.19-.96-.18-2.01-.26-2.99-.3-3.41-.61-6.81-.91-10.22-.09-1.04-.31-1.37-1.05-2.2-.83-.94-2.45-.96-3.62-1.22-1.09-.25-2.35-.54-3.37.14-1.13.75-1.17,1.5-1.17,2.71,0,1.61.06,3.24,0,4.85,0,.08,0,.11,0,.13,0,.01,0,.02,0,.05-.04.28-.12.57-.19.85-.2.9-.4,1.81-.59,2.71-.51,2.36,0,5.03.11,7.41.08,1.63.08,3.28.24,4.9.08.8.47,1.5.79,2.24,1.27,2.98,2.54,5.96,3.82,8.94.32.74,1.39.1,1.08-.63-1.08-2.53-2.16-5.07-3.25-7.61-.38-.9-.82-1.79-1.16-2.7.05.08-.03-.33-.04-.55l-.09-1.93c-.14-2.97-.44-5.97-.43-8.94,0-.07,0-.11,0-.13.03-.19.09-.39.13-.58.18-.83.36-1.66.54-2.48.23-1.06.31-1.89.31-2.97v-2.41c0-.61.16-1.53.01-2.15.21-.11.46-.51.65-.68.01,0,.02,0,.04-.01.2-.06.43-.09.64-.13.13-.03.27-.06.41-.08,1.29.29,2.78.43,4.02.9-.12-.02.18.2.39.44.07.08.21.28.34.44.01-.13.17-.22.13-.03-.01.05,0,.11,0,.17.05.05.1.09.14.1-.06-.01-.1-.03-.14-.06.01.14.04.29.05.4.28,3.16.56,6.31.84,9.47.15,1.72.12,3.46.73,5.08,1.28,3.41,2.56,6.82,3.84,10.23.3.79.66,1.59.89,2.4.39,1.39.56,2.87.83,4.29.15.79,1.36.45,1.21-.33-.41-2.13-.76-4.15-1.52-6.17-1.21-3.24-2.43-6.47-3.64-9.71M97.94,137.52s.03-.02.05-.03c-.07.17-.27.06-.05.03M98,137.44s0-.02,0-.04c-.01-.05.01-.11,0-.16.02.09.01.15,0,.2"/>
        <path class="cls-28" d="M104.51,138.35c0,.06.03.14.13.19,0-.02,0-.03,0-.04-.04-.04-.09-.09-.13-.15"/>
        <polygon class="cls-34" points="224.23 39.24 224.21 40.67 224.45 40.67 224.47 39.24 224.23 39.24"/>
        <polygon class="cls-34" points="227.11 39.28 227.09 40.71 227.33 40.71 227.35 39.28 227.11 39.28"/>
        <polygon class="cls-34" points="226.15 39.27 226.13 40.7 226.37 40.7 226.39 39.27 226.15 39.27"/>
        <polygon class="cls-34" points="225.19 39.25 225.17 40.68 225.41 40.68 225.43 39.26 225.19 39.25"/>
        <polygon class="cls-34" points="224.09 39.48 224.08 39.66 227.46 39.71 227.46 39.53 224.09 39.48"/>
        <polygon class="cls-34" points="224.07 40.27 224.07 40.44 227.45 40.5 227.45 40.32 224.07 40.27"/>
        <polygon class="cls-34" points="224.08 39.54 224.08 39.6 227.46 39.65 227.46 39.59 224.08 39.54"/>
        <polygon class="cls-34" points="224.07 40.33 224.07 40.39 227.45 40.44 227.45 40.38 224.07 40.33"/>
        <polygon class="cls-34" points="223.26 39.22 223.23 40.65 223.47 40.66 223.5 39.23 223.26 39.22"/>
        <polygon class="cls-34" points="222.3 39.21 222.28 40.64 222.52 40.64 222.54 39.21 222.3 39.21"/>
        <polygon class="cls-34" points="221.34 39.19 221.32 40.62 221.56 40.63 221.58 39.2 221.34 39.19"/>
        <polygon class="cls-34" points="220.71 39.43 220.71 39.61 224.09 39.66 224.09 39.48 220.71 39.43"/>
        <polygon class="cls-34" points="220.7 40.22 220.7 40.39 224.07 40.45 224.08 40.27 220.7 40.22"/>
        <polygon class="cls-34" points="220.71 39.49 220.71 39.55 224.09 39.6 224.09 39.54 220.71 39.49"/>
        <polygon class="cls-34" points="220.7 40.28 220.7 40.34 224.08 40.39 224.08 40.33 220.7 40.28"/>
        <polygon class="cls-34" points="217.48 39.14 217.46 40.57 217.7 40.57 217.72 39.14 217.48 39.14"/>
        <polygon class="cls-34" points="220.36 39.18 220.34 40.61 220.58 40.61 220.6 39.18 220.36 39.18"/>
        <polygon class="cls-34" points="219.4 39.17 219.38 40.59 219.62 40.6 219.64 39.17 219.4 39.17"/>
        <polygon class="cls-34" points="218.44 39.15 218.42 40.58 218.66 40.58 218.68 39.16 218.44 39.15"/>
        <polygon class="cls-34" points="217.34 39.38 217.34 39.56 220.71 39.61 220.71 39.43 217.34 39.38"/>
        <polygon class="cls-34" points="217.33 40.17 217.32 40.34 220.7 40.4 220.7 40.22 217.33 40.17"/>
        <polygon class="cls-34" points="217.33 39.44 217.33 39.5 220.71 39.55 220.71 39.49 217.33 39.44"/>
        <polygon class="cls-34" points="217.32 40.23 217.32 40.29 220.7 40.34 220.7 40.28 217.32 40.23"/>
        <polygon class="cls-34" points="216.51 39.12 216.49 40.55 216.73 40.55 216.75 39.13 216.51 39.12"/>
        <polygon class="cls-34" points="215.55 39.11 215.53 40.54 215.77 40.54 215.79 39.11 215.55 39.11"/>
        <polygon class="cls-34" points="214.59 39.09 214.57 40.52 214.81 40.53 214.83 39.1 214.59 39.09"/>
        <polygon class="cls-34" points="213.96 39.33 213.96 39.51 217.34 39.56 217.34 39.38 213.96 39.33"/>
        <polygon class="cls-34" points="213.95 40.12 213.95 40.29 217.33 40.35 217.33 40.17 213.95 40.12"/>
        <polygon class="cls-34" points="213.96 39.39 213.96 39.45 217.34 39.5 217.34 39.44 213.96 39.39"/>
        <polygon class="cls-34" points="213.95 40.17 213.95 40.23 217.33 40.28 217.33 40.22 213.95 40.17"/>
        <polygon class="cls-34" points="210.73 39.04 210.71 40.47 210.95 40.47 210.97 39.04 210.73 39.04"/>
        <polygon class="cls-34" points="213.61 39.08 213.59 40.51 213.83 40.51 213.85 39.08 213.61 39.08"/>
        <polygon class="cls-34" points="212.65 39.07 212.63 40.49 212.87 40.5 212.89 39.07 212.65 39.07"/>
        <polygon class="cls-34" points="211.69 39.05 211.67 40.48 211.91 40.48 211.93 39.05 211.69 39.05"/>
        <polygon class="cls-34" points="210.59 39.28 210.59 39.46 213.96 39.51 213.96 39.33 210.59 39.28"/>
        <polygon class="cls-34" points="210.58 40.06 210.58 40.24 213.95 40.29 213.95 40.11 210.58 40.06"/>
        <polygon class="cls-34" points="210.59 39.34 210.59 39.4 213.97 39.45 213.97 39.39 210.59 39.34"/>
        <polygon class="cls-34" points="210.57 40.12 210.57 40.18 213.95 40.23 213.96 40.17 210.57 40.12"/>
        <polygon class="cls-34" points="209.76 39.02 209.74 40.45 209.98 40.45 210 39.03 209.76 39.02"/>
        <polygon class="cls-34" points="208.8 39.01 208.78 40.44 209.02 40.44 209.04 39.01 208.8 39.01"/>
        <polygon class="cls-34" points="207.84 38.99 207.82 40.42 208.06 40.43 208.08 39 207.84 38.99"/>
        <polygon class="cls-34" points="207.22 39.23 207.21 39.41 210.59 39.46 210.59 39.28 207.22 39.23"/>
        <polygon class="cls-34" points="207.2 40.01 207.2 40.19 210.58 40.24 210.58 40.06 207.2 40.01"/>
        <polygon class="cls-34" points="207.21 39.29 207.21 39.35 210.59 39.4 210.59 39.34 207.21 39.29"/>
        <polygon class="cls-34" points="207.2 40.07 207.2 40.13 210.58 40.18 210.58 40.12 207.2 40.07"/>
        <polygon class="cls-34" points="203.99 38.94 203.97 40.37 204.21 40.37 204.23 38.94 203.99 38.94"/>
        <polygon class="cls-34" points="206.86 38.98 206.84 40.41 207.08 40.41 207.1 38.98 206.86 38.98"/>
        <polygon class="cls-34" points="205.91 38.96 205.88 40.39 206.12 40.4 206.15 38.97 205.91 38.96"/>
        <polygon class="cls-34" points="204.95 38.95 204.92 40.38 205.16 40.38 205.19 38.95 204.95 38.95"/>
        <polygon class="cls-34" points="203.84 39.18 203.84 39.36 207.21 39.41 207.22 39.23 203.84 39.18"/>
        <polygon class="cls-34" points="203.83 39.96 203.83 40.14 207.2 40.19 207.2 40.01 203.83 39.96"/>
        <polygon class="cls-34" points="203.84 39.24 203.84 39.3 207.22 39.35 207.22 39.29 203.84 39.24"/>
        <polygon class="cls-34" points="203.83 40.02 203.83 40.08 207.21 40.13 207.21 40.07 203.83 40.02"/>
        <polygon class="cls-34" points="203.01 38.92 202.99 40.35 203.23 40.35 203.25 38.93 203.01 38.92"/>
        <polygon class="cls-34" points="202.05 38.91 202.03 40.34 202.27 40.34 202.29 38.91 202.05 38.91"/>
        <polygon class="cls-34" points="201.09 38.89 201.07 40.32 201.31 40.32 201.33 38.9 201.09 38.89"/>
        <polygon class="cls-34" points="200.47 39.13 200.46 39.31 203.84 39.36 203.84 39.18 200.47 39.13"/>
        <polygon class="cls-34" points="200.46 39.91 200.45 40.09 203.83 40.14 203.83 39.96 200.46 39.91"/>
        <polygon class="cls-34" points="200.46 39.19 200.46 39.25 203.84 39.3 203.84 39.24 200.46 39.19"/>
        <polygon class="cls-34" points="200.45 39.97 200.45 40.03 203.83 40.08 203.83 40.02 200.45 39.97"/>
        <polygon class="cls-34" points="197.24 38.84 197.22 40.26 197.46 40.27 197.48 38.84 197.24 38.84"/>
        <polygon class="cls-34" points="200.12 38.88 200.1 40.31 200.33 40.31 200.36 38.88 200.12 38.88"/>
        <polygon class="cls-34" points="199.16 38.86 199.14 40.29 199.38 40.3 199.4 38.87 199.16 38.86"/>
        <polygon class="cls-34" points="198.2 38.85 198.18 40.28 198.42 40.28 198.44 38.85 198.2 38.85"/>
        <polygon class="cls-34" points="197.09 39.08 197.09 39.26 200.47 39.31 200.47 39.13 197.09 39.08"/>
        <polygon class="cls-34" points="197.08 39.86 197.08 40.04 200.45 40.09 200.46 39.91 197.08 39.86"/>
        <polygon class="cls-34" points="197.09 39.14 197.09 39.2 200.47 39.25 200.47 39.19 197.09 39.14"/>
        <polygon class="cls-34" points="197.08 39.92 197.08 39.98 200.46 40.03 200.46 39.97 197.08 39.92"/>
        <polygon class="cls-34" points="196.26 38.82 196.24 40.25 196.48 40.25 196.5 38.83 196.26 38.82"/>
        <polygon class="cls-34" points="195.3 38.81 195.28 40.24 195.52 40.24 195.54 38.81 195.3 38.81"/>
        <polygon class="cls-34" points="194.34 38.79 194.32 40.22 194.56 40.22 194.58 38.8 194.34 38.79"/>
        <polygon class="cls-34" points="193.72 39.03 193.72 39.21 197.09 39.26 197.09 39.08 193.72 39.03"/>
        <polygon class="cls-34" points="193.71 39.81 193.7 39.99 197.08 40.04 197.08 39.86 193.71 39.81"/>
        <polygon class="cls-34" points="193.72 39.09 193.71 39.15 197.09 39.2 197.1 39.14 193.72 39.09"/>
        <polygon class="cls-34" points="193.7 39.87 193.7 39.93 197.08 39.98 197.09 39.92 193.7 39.87"/>
        <polygon class="cls-34" points="190.49 38.74 190.47 40.16 190.71 40.17 190.73 38.74 190.49 38.74"/>
        <polygon class="cls-34" points="193.37 38.78 193.35 40.21 193.59 40.21 193.61 38.78 193.37 38.78"/>
        <polygon class="cls-34" points="192.41 38.76 192.39 40.19 192.63 40.2 192.65 38.77 192.41 38.76"/>
        <polygon class="cls-34" points="191.45 38.75 191.43 40.18 191.67 40.18 191.69 38.75 191.45 38.75"/>
        <polygon class="cls-34" points="190.34 38.98 190.34 39.16 193.72 39.21 193.72 39.03 190.34 38.98"/>
        <polygon class="cls-34" points="190.33 39.76 190.33 39.94 193.71 39.99 193.71 39.81 190.33 39.76"/>
        <polygon class="cls-34" points="190.34 39.04 190.34 39.1 193.72 39.15 193.72 39.09 190.34 39.04"/>
        <polygon class="cls-34" points="190.33 39.82 190.33 39.88 193.71 39.93 193.71 39.87 190.33 39.82"/>
        <polygon class="cls-34" points="189.51 38.72 189.49 40.15 189.73 40.15 189.75 38.72 189.51 38.72"/>
        <polygon class="cls-34" points="188.55 38.71 188.53 40.14 188.77 40.14 188.79 38.71 188.55 38.71"/>
        <polygon class="cls-34" points="187.6 38.69 187.57 40.12 187.81 40.12 187.84 38.7 187.6 38.69"/>
        <polygon class="cls-34" points="186.97 38.93 186.97 39.11 190.34 39.16 190.35 38.98 186.97 38.93"/>
        <polygon class="cls-34" points="186.96 39.71 186.96 39.89 190.33 39.94 190.33 39.76 186.96 39.71"/>
        <polygon class="cls-34" points="186.97 38.99 186.97 39.05 190.35 39.1 190.35 39.04 186.97 38.99"/>
        <polygon class="cls-34" points="186.96 39.77 186.95 39.83 190.34 39.88 190.34 39.82 186.96 39.77"/>
        <polygon class="cls-34" points="183.74 38.63 183.72 40.06 183.96 40.07 183.98 38.64 183.74 38.63"/>
        <polygon class="cls-34" points="186.62 38.68 186.6 40.11 186.84 40.11 186.86 38.68 186.62 38.68"/>
        <polygon class="cls-34" points="185.66 38.66 185.64 40.09 185.88 40.1 185.9 38.67 185.66 38.66"/>
        <polygon class="cls-34" points="184.7 38.65 184.68 40.08 184.92 40.08 184.94 38.65 184.7 38.65"/>
        <polygon class="cls-34" points="183.6 38.88 183.59 39.06 186.97 39.11 186.97 38.93 183.6 38.88"/>
        <polygon class="cls-34" points="183.59 39.66 183.58 39.84 186.96 39.89 186.96 39.71 183.59 39.66"/>
        <polygon class="cls-34" points="183.59 38.94 183.59 39 186.97 39.05 186.97 38.99 183.59 38.94"/>
        <polygon class="cls-34" points="183.58 39.72 183.58 39.78 186.96 39.83 186.96 39.77 183.58 39.72"/>
        <polygon class="cls-34" points="182.77 38.62 182.74 40.05 182.98 40.05 183.01 38.62 182.77 38.62"/>
        <polygon class="cls-34" points="181.81 38.61 181.79 40.03 182.03 40.04 182.05 38.61 181.81 38.61"/>
        <polygon class="cls-34" points="180.85 38.59 180.83 40.02 181.07 40.02 181.09 38.6 180.85 38.59"/>
        <polygon class="cls-34" points="180.22 38.83 180.22 39.01 183.6 39.06 183.6 38.88 180.22 38.83"/>
        <polygon class="cls-34" points="180.21 39.61 180.21 39.79 183.58 39.84 183.59 39.66 180.21 39.61"/>
        <polygon class="cls-34" points="180.22 38.89 180.22 38.95 183.6 39 183.6 38.94 180.22 38.89"/>
        <polygon class="cls-34" points="180.21 39.67 180.21 39.73 183.59 39.78 183.59 39.72 180.21 39.67"/>
        <polygon class="cls-34" points="176.99 38.53 176.97 39.96 177.21 39.97 177.23 38.54 176.99 38.53"/>
        <polygon class="cls-34" points="179.87 38.58 179.85 40.01 180.09 40.01 180.11 38.58 179.87 38.58"/>
        <polygon class="cls-34" points="178.91 38.56 178.89 39.99 179.13 39.99 179.15 38.57 178.91 38.56"/>
        <polygon class="cls-34" points="177.95 38.55 177.93 39.98 178.17 39.98 178.19 38.55 177.95 38.55"/>
        <polygon class="cls-34" points="176.85 38.78 176.85 38.96 180.22 39.01 180.22 38.83 176.85 38.78"/>
        <polygon class="cls-34" points="176.84 39.56 176.83 39.74 180.21 39.79 180.21 39.61 176.84 39.56"/>
        <polygon class="cls-34" points="176.84 38.84 176.84 38.9 180.22 38.95 180.22 38.89 176.84 38.84"/>
        <polygon class="cls-34" points="176.83 39.62 176.83 39.68 180.21 39.73 180.21 39.67 176.83 39.62"/>
        <polygon class="cls-34" points="176.02 38.52 176 39.95 176.24 39.95 176.26 38.52 176.02 38.52"/>
        <polygon class="cls-34" points="175.06 38.51 175.04 39.93 175.28 39.94 175.3 38.51 175.06 38.51"/>
        <polygon class="cls-34" points="174.1 38.49 174.08 39.92 174.32 39.92 174.34 38.49 174.1 38.49"/>
        <polygon class="cls-34" points="173.47 38.73 173.47 38.91 176.85 38.96 176.85 38.78 173.47 38.73"/>
        <polygon class="cls-34" points="173.46 39.51 173.46 39.69 176.84 39.74 176.84 39.56 173.46 39.51"/>
        <polygon class="cls-34" points="173.47 38.79 173.47 38.85 176.85 38.9 176.85 38.84 173.47 38.79"/>
        <polygon class="cls-34" points="173.46 39.57 173.46 39.63 176.84 39.68 176.84 39.62 173.46 39.57"/>
        <polygon class="cls-34" points="170.37 38.18 170.15 39.59 170.39 39.63 170.6 38.21 170.37 38.18"/>
        <polygon class="cls-34" points="173.12 38.48 173.1 39.91 173.34 39.91 173.36 38.48 173.12 38.48"/>
        <polygon class="cls-34" points="172.23 38.46 172.08 39.88 172.13 39.89 172.38 39.89 172.4 38.47 172.24 38.46 172.23 38.46"/>
        <rect class="cls-34" x="170.61" y="38.93" width="1.43" height=".24" transform="translate(106.95 202.55) rotate(-81.35)"/>
        <polygon class="cls-34" points="170.19 38.4 170.16 38.58 172.21 38.89 173.47 38.91 173.48 38.73 172.22 38.71 170.19 38.4"/>
        <polygon class="cls-34" points="170.07 39.18 170.04 39.35 172.14 39.67 173.46 39.69 173.46 39.51 172.16 39.49 170.07 39.18"/>
        <polygon class="cls-34" points="170.18 38.46 170.17 38.52 172.21 38.83 173.48 38.85 173.48 38.79 172.22 38.77 170.18 38.46"/>
        <polygon class="cls-34" points="170.06 39.23 170.05 39.29 172.15 39.61 173.46 39.63 173.47 39.57 172.15 39.55 170.06 39.23"/>
        <polygon class="cls-34" points="169.4 38.03 169.18 39.44 169.42 39.48 169.64 38.07 169.4 38.03"/>
        <polygon class="cls-34" points="168.45 37.89 168.24 39.3 168.47 39.34 168.69 37.92 168.45 37.89"/>
        <polygon class="cls-34" points="167.51 37.74 167.29 39.16 167.52 39.19 167.74 37.78 167.51 37.74"/>
        <rect class="cls-34" x="168.42" y="36.55" width=".18" height="3.37" transform="translate(105.31 199.05) rotate(-81.33)"/>
        <rect class="cls-34" x="168.3" y="37.32" width=".18" height="3.38" transform="translate(103.55 199.24) rotate(-81.01)"/>
        <rect class="cls-34" x="168.48" y="36.55" width=".06" height="3.38" transform="translate(105.29 199.05) rotate(-81.33)"/>
        <rect class="cls-34" x="168.36" y="37.32" width=".06" height="3.38" transform="translate(104.43 199.59) rotate(-81.33)"/>
        <polygon class="cls-34" points="163.7 37.17 163.47 38.58 163.71 38.61 163.93 37.2 163.7 37.17"/>
        <polygon class="cls-34" points="166.54 37.6 166.32 39.01 166.56 39.05 166.78 37.63 166.54 37.6"/>
        <polygon class="cls-34" points="165.59 37.45 165.37 38.87 165.61 38.9 165.83 37.49 165.59 37.45"/>
        <polygon class="cls-34" points="164.64 37.31 164.42 38.72 164.66 38.76 164.88 37.35 164.64 37.31"/>
        <rect class="cls-34" x="165.08" y="36.04" width=".18" height="3.37" transform="translate(102.1 194.98) rotate(-81.01)"/>
        <rect class="cls-34" x="164.96" y="36.82" width=".18" height="3.38" transform="translate(101.23 195.51) rotate(-81.01)"/>
        <rect class="cls-34" x="165.14" y="36.04" width=".06" height="3.38" transform="translate(102.96 195.32) rotate(-81.33)"/>
        <rect class="cls-34" x="165.02" y="36.81" width=".06" height="3.38" transform="translate(102.09 195.86) rotate(-81.33)"/>
        <polygon class="cls-34" points="162.73 37.02 162.51 38.43 162.75 38.47 162.97 37.06 162.73 37.02"/>
        <polygon class="cls-34" points="161.78 36.88 161.56 38.29 161.8 38.32 162.02 36.91 161.78 36.88"/>
        <polygon class="cls-34" points="160.84 36.73 160.61 38.14 160.85 38.18 161.07 36.77 160.84 36.73"/>
        <rect class="cls-34" x="161.75" y="35.54" width=".18" height="3.37" transform="translate(99.78 191.26) rotate(-81.01)"/>
        <polygon class="cls-34" points="160.06 37.66 160.03 37.83 163.37 38.34 163.4 38.16 160.06 37.66"/>
        <rect class="cls-34" x="161.81" y="35.53" width=".06" height="3.38" transform="translate(100.63 191.6) rotate(-81.33)"/>
        <rect class="cls-34" x="161.69" y="36.31" width=".06" height="3.38" transform="translate(99.76 192.13) rotate(-81.33)"/>
        <polygon class="cls-34" points="157.03 36.15 156.8 37.57 157.04 37.6 157.26 36.19 157.03 36.15"/>
        <polygon class="cls-34" points="159.87 36.59 159.65 38 159.88 38.03 160.11 36.62 159.87 36.59"/>
        <polygon class="cls-34" points="158.92 36.44 158.7 37.85 158.93 37.89 159.16 36.48 158.92 36.44"/>
        <polygon class="cls-34" points="157.97 36.3 157.75 37.71 157.98 37.75 158.21 36.33 157.97 36.3"/>
        <polygon class="cls-34" points="156.85 36.38 156.82 36.55 160.16 37.06 160.18 36.88 156.85 36.38"/>
        <polygon class="cls-34" points="156.72 37.15 156.69 37.33 160.03 37.83 160.06 37.66 156.72 37.15"/>
        <rect class="cls-34" x="158.47" y="35.03" width=".06" height="3.38" transform="translate(98.3 187.87) rotate(-81.33)"/>
        <polygon class="cls-34" points="156.71 37.21 156.7 37.27 160.04 37.78 160.05 37.72 156.71 37.21"/>
        <polygon class="cls-34" points="156.06 36.01 155.83 37.42 156.07 37.45 156.3 36.04 156.06 36.01"/>
        <polygon class="cls-34" points="155.11 35.86 154.89 37.27 155.12 37.31 155.35 35.9 155.11 35.86"/>
        <polygon class="cls-34" points="154.17 35.72 153.94 37.13 154.17 37.17 154.4 35.76 154.17 35.72"/>
        <polygon class="cls-34" points="153.51 35.87 153.48 36.05 156.82 36.55 156.85 36.38 153.51 35.87"/>
        <polygon class="cls-34" points="153.39 36.64 153.36 36.82 156.69 37.33 156.72 37.15 153.39 36.64"/>
        <polygon class="cls-34" points="153.5 35.93 153.49 35.99 156.83 36.5 156.84 36.44 153.5 35.93"/>
        <polygon class="cls-34" points="153.37 36.7 153.36 36.76 156.71 37.27 156.72 37.21 153.37 36.7"/>
        <polygon class="cls-34" points="150.36 35.1 150.13 36.51 150.37 36.56 150.6 35.15 150.36 35.1"/>
        <polygon class="cls-34" points="153.2 35.57 152.97 36.98 153.21 37.02 153.44 35.61 153.2 35.57"/>
        <polygon class="cls-34" points="152.25 35.43 152.02 36.84 152.26 36.88 152.49 35.47 152.25 35.43"/>
        <polygon class="cls-34" points="151.31 35.27 151.07 36.68 151.31 36.72 151.54 35.31 151.31 35.27"/>
        <path class="cls-34" d="M150.18,35.32l-.03.18c1.11.21,2.22.39,3.33.55l.03-.18c-1.11-.16-2.22-.34-3.33-.55"/>
        <path class="cls-34" d="M150.06,36.09l-.03.18c1.11.21,2.22.39,3.33.55l.03-.18c-1.11-.16-2.22-.34-3.33-.55"/>
        <path class="cls-34" d="M150.17,35.38v.06c1.1.21,2.21.39,3.32.55v-.06c-1.11-.16-2.22-.34-3.32-.55"/>
        <path class="cls-34" d="M150.04,36.15v.06c1.1.21,2.21.39,3.33.55v-.06c-1.11-.16-2.22-.34-3.33-.55"/>
        <polygon class="cls-34" points="149.4 34.93 149.17 36.34 149.4 36.38 149.64 34.97 149.4 34.93"/>
        <polygon class="cls-34" points="148.46 34.76 148.22 36.17 148.46 36.22 148.69 34.81 148.46 34.76"/>
        <polygon class="cls-34" points="147.51 34.6 147.28 36.01 147.51 36.05 147.75 34.64 147.51 34.6"/>
        <polygon class="cls-34" points="146.86 34.73 146.83 34.91 150.16 35.5 150.19 35.32 146.86 34.73"/>
        <polygon class="cls-34" points="146.73 35.5 146.7 35.68 150.03 36.27 150.06 36.1 146.73 35.5"/>
        <polygon class="cls-34" points="146.85 34.79 146.84 34.85 150.17 35.44 150.18 35.38 146.85 34.79"/>
        <polygon class="cls-34" points="146.72 35.56 146.71 35.62 150.04 36.21 150.05 36.15 146.72 35.56"/>
        <polygon class="cls-34" points="143.72 33.92 143.48 35.33 143.72 35.37 143.96 33.96 143.72 33.92"/>
        <polygon class="cls-34" points="146.55 34.43 146.32 35.83 146.55 35.88 146.79 34.47 146.55 34.43"/>
        <polygon class="cls-34" points="145.61 34.26 145.37 35.67 145.61 35.71 145.85 34.3 145.61 34.26"/>
        <polygon class="cls-34" points="144.66 34.09 144.43 35.5 144.66 35.54 144.9 34.13 144.66 34.09"/>
        <polygon class="cls-34" points="143.54 34.14 143.51 34.32 146.83 34.91 146.86 34.73 143.54 34.14"/>
        <polygon class="cls-34" points="143.41 34.91 143.38 35.09 146.7 35.68 146.73 35.5 143.41 34.91"/>
        <polygon class="cls-34" points="143.53 34.2 143.52 34.26 146.85 34.85 146.86 34.79 143.53 34.2"/>
        <polygon class="cls-34" points="143.4 34.97 143.39 35.03 146.72 35.62 146.73 35.56 143.4 34.97"/>
        <polygon class="cls-34" points="142.76 33.75 142.52 35.16 142.76 35.2 143 33.79 142.76 33.75"/>
        <polygon class="cls-34" points="141.82 33.58 141.58 34.99 141.81 35.03 142.05 33.63 141.82 33.58"/>
        <polygon class="cls-34" points="140.87 33.42 140.63 34.82 140.87 34.87 141.11 33.46 140.87 33.42"/>
        <polygon class="cls-34" points="140.22 33.55 140.19 33.73 143.51 34.32 143.54 34.14 140.22 33.55"/>
        <polygon class="cls-34" points="140.09 34.32 140.06 34.5 143.38 35.09 143.41 34.91 140.09 34.32"/>
        <polygon class="cls-34" points="140.21 33.61 140.2 33.67 143.52 34.26 143.53 34.2 140.21 33.61"/>
        <polygon class="cls-34" points="140.07 34.38 140.06 34.44 143.39 35.03 143.4 34.97 140.07 34.38"/>
        <polygon class="cls-34" points="137.08 32.74 136.84 34.15 137.07 34.19 137.31 32.78 137.08 32.74"/>
        <polygon class="cls-34" points="139.91 33.24 139.67 34.65 139.91 34.69 140.15 33.29 139.91 33.24"/>
        <polygon class="cls-34" points="138.97 33.08 138.73 34.48 138.96 34.53 139.2 33.12 138.97 33.08"/>
        <polygon class="cls-34" points="138.02 32.91 137.78 34.32 138.02 34.36 138.26 32.95 138.02 32.91"/>
        <polygon class="cls-34" points="136.9 32.96 136.87 33.14 140.19 33.73 140.22 33.55 136.9 32.96"/>
        <polygon class="cls-34" points="136.76 33.73 136.73 33.91 140.06 34.5 140.09 34.32 136.76 33.73"/>
        <polygon class="cls-34" points="136.88 33.02 136.87 33.08 140.2 33.67 140.21 33.61 136.88 33.02"/>
        <polygon class="cls-34" points="136.75 33.79 136.74 33.85 140.07 34.44 140.08 34.38 136.75 33.79"/>
        <polygon class="cls-34" points="136.12 32.57 135.87 33.98 136.11 34.02 136.35 32.61 136.12 32.57"/>
        <polygon class="cls-34" points="135.17 32.4 134.93 33.81 135.17 33.85 135.41 32.44 135.17 32.4"/>
        <polygon class="cls-34" points="134.23 32.23 133.99 33.64 134.22 33.68 134.47 32.28 134.23 32.23"/>
        <polygon class="cls-34" points="133.58 32.37 133.54 32.54 136.87 33.13 136.9 32.96 133.58 32.37"/>
        <polygon class="cls-34" points="133.44 33.14 133.41 33.32 136.74 33.91 136.77 33.73 133.44 33.14"/>
        <polygon class="cls-34" points="133.56 32.43 133.55 32.49 136.88 33.08 136.89 33.02 133.56 32.43"/>
        <polygon class="cls-34" points="133.43 33.2 133.42 33.26 136.75 33.85 136.76 33.79 133.43 33.2"/>
        <polygon class="cls-34" points="130.44 31.56 130.19 32.97 130.42 33.01 130.67 31.6 130.44 31.56"/>
        <polygon class="cls-34" points="133.27 32.06 133.02 33.47 133.26 33.51 133.5 32.1 133.27 32.06"/>
        <polygon class="cls-34" points="132.32 31.9 132.08 33.3 132.32 33.35 132.56 31.94 132.32 31.9"/>
        <polygon class="cls-34" points="131.38 31.73 131.13 33.13 131.37 33.18 131.62 31.77 131.38 31.73"/>
        <polygon class="cls-34" points="130.25 31.78 130.22 31.95 133.55 32.54 133.58 32.37 130.25 31.78"/>
        <polygon class="cls-34" points="130.12 32.55 130.09 32.73 133.41 33.32 133.44 33.14 130.12 32.55"/>
        <polygon class="cls-34" points="130.24 31.84 130.23 31.89 133.56 32.49 133.57 32.43 130.24 31.84"/>
        <polygon class="cls-34" points="130.11 32.61 130.1 32.67 133.42 33.26 133.44 33.2 130.11 32.61"/>
        <polygon class="cls-34" points="129.48 31.39 129.23 32.8 129.46 32.84 129.71 31.43 129.48 31.39"/>
        <polygon class="cls-34" points="128.53 31.22 128.28 32.63 128.52 32.67 128.77 31.26 128.53 31.22"/>
        <polygon class="cls-34" points="127.59 31.05 127.34 32.46 127.57 32.5 127.82 31.09 127.59 31.05"/>
        <polygon class="cls-34" points="126.93 31.19 126.9 31.36 130.22 31.95 130.26 31.78 126.93 31.19"/>
        <polygon class="cls-34" points="126.8 31.96 126.76 32.14 130.09 32.73 130.12 32.55 126.8 31.96"/>
        <polygon class="cls-34" points="126.92 31.24 126.91 31.3 130.24 31.89 130.25 31.84 126.92 31.24"/>
        <polygon class="cls-34" points="126.78 32.02 126.77 32.08 130.1 32.67 130.11 32.61 126.78 32.02"/>
        <rect class="cls-34" x="123.07" y="30.98" width="1.43" height=".24" transform="translate(71.35 147.47) rotate(-79.85)"/>
        <rect class="cls-34" x="125.9" y="31.49" width="1.43" height=".24" transform="translate(73.35 150.74) rotate(-79.92)"/>
        <rect class="cls-34" x="124.96" y="31.32" width="1.43" height=".24" transform="translate(72.74 149.68) rotate(-79.92)"/>
        <rect class="cls-34" x="124.02" y="31.15" width="1.43" height=".24" transform="translate(72.04 148.57) rotate(-79.88)"/>
        <polygon class="cls-34" points="123.61 30.6 123.58 30.77 126.9 31.36 126.93 31.19 123.61 30.6"/>
        <polygon class="cls-34" points="123.47 31.37 123.44 31.54 126.77 32.14 126.8 31.96 123.47 31.37"/>
        <polygon class="cls-34" points="123.6 30.65 123.59 30.71 126.91 31.3 126.93 31.25 123.6 30.65"/>
        <polygon class="cls-34" points="123.46 31.43 123.45 31.48 126.78 32.08 126.79 32.02 123.46 31.43"/>
        <polygon class="cls-34" points="122.83 30.21 122.58 31.61 122.82 31.66 123.07 30.25 122.83 30.21"/>
        <polygon class="cls-34" points="121.89 30.04 121.64 31.45 121.87 31.49 122.12 30.08 121.89 30.04"/>
        <polygon class="cls-34" points="120.94 29.87 120.69 31.28 120.93 31.32 121.18 29.91 120.94 29.87"/>
        <polygon class="cls-34" points="120.29 30.01 120.26 30.18 123.58 30.77 123.61 30.6 120.29 30.01"/>
        <polygon class="cls-34" points="120.15 30.78 120.12 30.95 123.44 31.54 123.47 31.37 120.15 30.78"/>
        <polygon class="cls-34" points="120.28 30.06 120.27 30.12 123.59 30.71 123.6 30.66 120.28 30.06"/>
        <polygon class="cls-34" points="120.14 30.83 120.13 30.89 123.46 31.49 123.47 31.43 120.14 30.83"/>
        <polygon class="cls-34" points="117.15 29.2 116.89 30.6 117.13 30.64 117.39 29.24 117.15 29.2"/>
        <polygon class="cls-34" points="119.98 29.7 119.73 31.11 119.97 31.15 120.22 29.74 119.98 29.7"/>
        <polygon class="cls-34" points="119.04 29.53 118.78 30.94 119.02 30.98 119.28 29.57 119.04 29.53"/>
        <polygon class="cls-34" points="118.09 29.36 117.84 30.77 118.08 30.81 118.33 29.41 118.09 29.36"/>
        <polygon class="cls-34" points="116.97 29.41 116.94 29.59 120.26 30.18 120.29 30.01 116.97 29.41"/>
        <polygon class="cls-34" points="116.83 30.19 116.79 30.36 120.12 30.95 120.15 30.78 116.83 30.19"/>
        <polygon class="cls-34" points="116.95 29.47 116.94 29.53 120.27 30.12 120.28 30.06 116.95 29.47"/>
        <polygon class="cls-34" points="116.81 30.24 116.8 30.3 120.13 30.9 120.14 30.84 116.81 30.24"/>
        <polygon class="cls-34" points="116.19 29.03 115.93 30.43 116.17 30.47 116.43 29.07 116.19 29.03"/>
        <polygon class="cls-34" points="115.25 28.86 114.99 30.26 115.23 30.3 115.48 28.9 115.25 28.86"/>
        <polygon class="cls-34" points="114.3 28.69 114.04 30.09 114.28 30.14 114.54 28.73 114.3 28.69"/>
        <polygon class="cls-34" points="113.65 28.82 113.61 29 116.94 29.59 116.97 29.41 113.65 28.82"/>
        <polygon class="cls-34" points="113.5 29.59 113.47 29.77 116.8 30.36 116.83 30.19 113.5 29.59"/>
        <polygon class="cls-34" points="113.63 28.88 113.62 28.94 116.95 29.53 116.96 29.47 113.63 28.88"/>
        <polygon class="cls-34" points="113.49 29.65 113.48 29.71 116.81 30.3 116.82 30.25 113.49 29.65"/>
        <polygon class="cls-34" points="110.51 28.02 110.25 29.42 110.48 29.46 110.74 28.06 110.51 28.02"/>
        <polygon class="cls-34" points="113.34 28.52 113.08 29.92 113.32 29.97 113.58 28.56 113.34 28.52"/>
        <polygon class="cls-34" points="112.4 28.35 112.14 29.76 112.37 29.8 112.63 28.39 112.4 28.35"/>
        <polygon class="cls-34" points="111.45 28.18 111.19 29.59 111.43 29.63 111.69 28.23 111.45 28.18"/>
        <polygon class="cls-34" points="110.32 28.23 110.29 28.41 113.61 29 113.65 28.82 110.32 28.23"/>
        <polygon class="cls-34" points="110.18 29 110.15 29.18 113.47 29.77 113.51 29.59 110.18 29"/>
        <polygon class="cls-34" points="110.31 28.29 110.3 28.35 113.63 28.94 113.64 28.88 110.31 28.29"/>
        <polygon class="cls-34" points="110.17 29.06 110.16 29.12 113.49 29.71 113.5 29.65 110.17 29.06"/>
        <polygon class="cls-34" points="109.55 27.84 109.29 29.25 109.52 29.29 109.78 27.89 109.55 27.84"/>
        <polygon class="cls-34" points="108.6 27.68 108.34 29.08 108.58 29.12 108.84 27.72 108.6 27.68"/>
        <polygon class="cls-34" points="107.66 27.51 107.4 28.91 107.63 28.96 107.9 27.55 107.66 27.51"/>
        <polygon class="cls-34" points="107 27.64 106.97 27.82 110.29 28.41 110.33 28.23 107 27.64"/>
        <polygon class="cls-34" points="106.86 28.41 106.83 28.59 110.15 29.18 110.18 29 106.86 28.41"/>
        <polygon class="cls-34" points="106.99 27.7 106.98 27.76 110.31 28.35 110.32 28.29 106.99 27.7"/>
        <polygon class="cls-34" points="106.84 28.47 106.83 28.53 110.16 29.12 110.17 29.06 106.84 28.47"/>
        <polygon class="cls-34" points="103.87 26.83 103.6 28.24 103.84 28.28 104.1 26.88 103.87 26.83"/>
        <polygon class="cls-34" points="106.7 27.34 106.44 28.74 106.67 28.78 106.93 27.38 106.7 27.34"/>
        <polygon class="cls-34" points="105.75 27.17 105.49 28.57 105.73 28.62 105.99 27.21 105.75 27.17"/>
        <polygon class="cls-34" points="104.81 27 104.54 28.41 104.78 28.45 105.05 27.04 104.81 27"/>
        <polygon class="cls-34" points="103.68 27.05 103.65 27.23 106.97 27.82 107 27.64 103.68 27.05"/>
        <polygon class="cls-34" points="103.54 27.82 103.5 28 106.83 28.59 106.86 28.41 103.54 27.82"/>
        <polygon class="cls-34" points="103.67 27.11 103.66 27.17 106.98 27.76 107 27.7 103.67 27.11"/>
        <polygon class="cls-34" points="103.52 27.88 103.51 27.94 106.84 28.53 106.85 28.47 103.52 27.88"/>
        <polygon class="cls-34" points="102.91 26.66 102.64 28.07 102.88 28.11 103.14 26.71 102.91 26.66"/>
        <polygon class="cls-34" points="101.96 26.5 101.69 27.9 101.93 27.94 102.2 26.54 101.96 26.5"/>
        <polygon class="cls-34" points="101.02 26.33 100.75 27.73 100.99 27.77 101.25 26.37 101.02 26.33"/>
        <polygon class="cls-34" points="100.36 26.46 100.33 26.64 103.65 27.23 103.68 27.05 100.36 26.46"/>
        <polygon class="cls-34" points="100.21 27.23 100.18 27.41 103.5 28 103.54 27.82 100.21 27.23"/>
        <polygon class="cls-34" points="100.35 26.52 100.33 26.58 103.66 27.17 103.67 27.11 100.35 26.52"/>
        <polygon class="cls-34" points="100.2 27.29 100.19 27.35 103.52 27.94 103.53 27.88 100.2 27.29"/>
        <polygon class="cls-34" points="97.22 25.65 96.95 27.05 97.19 27.1 97.46 25.69 97.22 25.65"/>
        <polygon class="cls-34" points="100.06 26.16 99.79 27.56 100.02 27.6 100.29 26.2 100.06 26.16"/>
        <polygon class="cls-34" points="99.11 25.99 98.84 27.39 99.08 27.43 99.35 26.03 99.11 25.99"/>
        <polygon class="cls-34" points="98.17 25.82 97.9 27.22 98.13 27.27 98.4 25.86 98.17 25.82"/>
        <polygon class="cls-34" points="97.04 25.86 97.01 26.04 100.33 26.64 100.36 26.46 97.04 25.86"/>
        <polygon class="cls-34" points="96.89 26.63 96.86 26.81 100.18 27.41 100.21 27.23 96.89 26.63"/>
        <polygon class="cls-34" points="97.03 25.92 97.01 25.98 100.34 26.58 100.35 26.52 97.03 25.92"/>
        <polygon class="cls-34" points="96.88 26.69 96.87 26.75 100.19 27.35 100.21 27.29 96.88 26.69"/>
        <polygon class="cls-34" points="96.27 25.45 96 26.85 96.23 26.9 96.5 25.5 96.27 25.45"/>
        <polygon class="cls-34" points="95.33 25.26 95.06 26.66 95.29 26.71 95.56 25.31 95.33 25.26"/>
        <polygon class="cls-34" points="94.39 25.06 94.12 26.47 94.35 26.51 94.62 25.11 94.39 25.06"/>
        <polygon class="cls-34" points="93.74 25.18 93.7 25.36 97.01 26.04 97.04 25.86 93.74 25.18"/>
        <polygon class="cls-34" points="93.59 25.95 93.55 26.12 96.86 26.81 96.89 26.63 93.59 25.95"/>
        <polygon class="cls-34" points="93.72 25.24 93.71 25.3 97.02 25.98 97.03 25.92 93.72 25.24"/>
        <rect class="cls-34" x="95.19" y="24.69" width=".06" height="3.38" transform="translate(51.84 115.15) rotate(-79.44)"/>
        <polygon class="cls-34" points="90.62 24.28 90.34 25.68 90.58 25.73 90.85 24.33 90.62 24.28"/>
        <polygon class="cls-34" points="93.43 24.87 93.16 26.27 93.4 26.32 93.67 24.91 93.43 24.87"/>
        <polygon class="cls-34" points="92.5 24.67 92.22 26.07 92.46 26.12 92.73 24.72 92.5 24.67"/>
        <polygon class="cls-34" points="91.56 24.48 91.28 25.88 91.52 25.93 91.79 24.53 91.56 24.48"/>
        <polygon class="cls-34" points="90.43 24.5 90.4 24.67 93.7 25.36 93.74 25.18 90.43 24.5"/>
        <polygon class="cls-34" points="90.28 25.27 90.25 25.44 93.55 26.13 93.59 25.95 90.28 25.27"/>
        <polygon class="cls-34" points="90.42 24.55 90.41 24.61 93.72 25.3 93.73 25.24 90.42 24.55"/>
        <rect class="cls-34" x="91.89" y="24" width=".06" height="3.38" transform="translate(49.81 111.35) rotate(-79.44)"/>
        <polygon class="cls-34" points="89.66 24.09 89.39 25.49 89.62 25.54 89.9 24.13 89.66 24.09"/>
        <polygon class="cls-34" points="88.72 23.89 88.45 25.29 88.68 25.34 88.96 23.94 88.72 23.89"/>
        <polygon class="cls-34" points="87.78 23.7 87.51 25.1 87.74 25.15 88.02 23.75 87.78 23.7"/>
        <polygon class="cls-34" points="87.13 23.81 87.09 23.99 90.4 24.67 90.43 24.5 87.13 23.81"/>
        <polygon class="cls-34" points="86.98 24.58 86.94 24.76 90.25 25.44 90.28 25.27 86.98 24.58"/>
        <polygon class="cls-34" points="87.11 23.87 87.1 23.93 90.41 24.61 90.42 24.56 87.11 23.87"/>
        <rect class="cls-34" x="88.58" y="23.32" width=".06" height="3.38" transform="translate(46.44 106.86) rotate(-78.5)"/>
        <polygon class="cls-34" points="84.01 22.92 83.73 24.32 83.97 24.37 84.24 22.97 84.01 22.92"/>
        <polygon class="cls-34" points="86.83 23.5 86.55 24.9 86.79 24.95 87.06 23.55 86.83 23.5"/>
        <polygon class="cls-34" points="85.89 23.31 85.61 24.71 85.85 24.76 86.12 23.35 85.89 23.31"/>
        <polygon class="cls-34" points="84.95 23.11 84.67 24.51 84.91 24.56 85.18 23.16 84.95 23.11"/>
        <polygon class="cls-34" points="83.82 23.13 83.79 23.31 87.09 23.99 87.13 23.81 83.82 23.13"/>
        <polygon class="cls-34" points="83.67 23.9 83.64 24.07 86.94 24.76 86.98 24.58 83.67 23.9"/>
        <rect class="cls-34" x="85.43" y="21.87" width=".06" height="3.38" transform="translate(45.07 102.47) rotate(-78.31)"/>
        <rect class="cls-34" x="85.28" y="22.64" width=".06" height="3.38" transform="translate(44.46 103.08) rotate(-78.5)"/>
        <polygon class="cls-34" points="83.05 22.72 82.78 24.12 83.01 24.17 83.29 22.77 83.05 22.72"/>
        <polygon class="cls-34" points="82.11 22.53 81.84 23.93 82.07 23.98 82.35 22.57 82.11 22.53"/>
        <polygon class="cls-34" points="81.18 22.33 80.9 23.73 81.13 23.78 81.41 22.38 81.18 22.33"/>
        <polygon class="cls-34" points="80.52 22.45 80.48 22.62 83.79 23.31 83.82 23.13 80.52 22.45"/>
        <polygon class="cls-34" points="80.37 23.22 80.33 23.39 83.64 24.07 83.67 23.9 80.37 23.22"/>
        <rect class="cls-34" x="82.12" y="21.19" width=".06" height="3.38" transform="translate(43.11 98.69) rotate(-78.31)"/>
        <rect class="cls-34" x="81.97" y="21.95" width=".06" height="3.38" transform="translate(42.49 99.29) rotate(-78.5)"/>
        <polygon class="cls-34" points="77.4 21.55 77.12 22.95 77.36 23 77.64 21.6 77.4 21.55"/>
        <polygon class="cls-34" points="80.22 22.13 79.94 23.53 80.18 23.58 80.46 22.18 80.22 22.13"/>
        <polygon class="cls-34" points="79.28 21.94 79 23.34 79.24 23.39 79.52 21.99 79.28 21.94"/>
        <polygon class="cls-34" points="78.34 21.74 78.06 23.15 78.3 23.19 78.58 21.79 78.34 21.74"/>
        <polygon class="cls-34" points="77.22 21.76 77.18 21.94 80.49 22.62 80.52 22.45 77.22 21.76"/>
        <polygon class="cls-34" points="77.06 22.53 77.03 22.71 80.33 23.39 80.37 23.22 77.06 22.53"/>
        <rect class="cls-34" x="78.82" y="20.5" width=".06" height="3.38" transform="translate(41.14 94.91) rotate(-78.31)"/>
        <rect class="cls-34" x="78.67" y="21.27" width=".06" height="3.38" transform="translate(40.51 95.5) rotate(-78.5)"/>
        <polygon class="cls-34" points="76.45 21.35 76.16 22.75 76.4 22.8 76.68 21.4 76.45 21.35"/>
        <polygon class="cls-34" points="75.51 21.16 75.22 22.56 75.46 22.61 75.74 21.21 75.51 21.16"/>
        <polygon class="cls-34" points="74.57 20.96 74.29 22.37 74.52 22.41 74.8 21.01 74.57 20.96"/>
        <polygon class="cls-34" points="73.91 21.08 73.88 21.26 77.18 21.94 77.22 21.76 73.91 21.08"/>
        <polygon class="cls-34" points="73.76 21.85 73.72 22.03 77.03 22.71 77.06 22.53 73.76 21.85"/>
        <rect class="cls-34" x="75.52" y="19.82" width=".06" height="3.38" transform="translate(39.17 91.13) rotate(-78.31)"/>
        <rect class="cls-34" x="75.36" y="20.59" width=".06" height="3.38" transform="translate(38.53 91.72) rotate(-78.5)"/>
        <polygon class="cls-34" points="70.79 20.18 70.51 21.58 70.74 21.63 71.03 20.23 70.79 20.18"/>
        <polygon class="cls-34" points="73.61 20.77 73.33 22.17 73.56 22.22 73.85 20.82 73.61 20.77"/>
        <polygon class="cls-34" points="72.67 20.57 72.39 21.97 72.62 22.02 72.91 20.62 72.67 20.57"/>
        <polygon class="cls-34" points="71.73 20.38 71.45 21.78 71.68 21.83 71.97 20.43 71.73 20.38"/>
        <polygon class="cls-34" points="70.61 20.4 70.57 20.57 73.88 21.26 73.91 21.08 70.61 20.4"/>
        <polygon class="cls-34" points="70.45 21.17 70.41 21.34 73.72 22.02 73.76 21.85 70.45 21.17"/>
        <rect class="cls-34" x="72.21" y="19.14" width=".06" height="3.38" transform="translate(37.21 87.35) rotate(-78.31)"/>
        <rect class="cls-34" x="72.06" y="19.9" width=".06" height="3.38" transform="translate(36.56 87.93) rotate(-78.5)"/>
        <polygon class="cls-34" points="69.84 19.99 69.55 21.39 69.79 21.44 70.07 20.04 69.84 19.99"/>
        <rect class="cls-34" x="68.16" y="20.4" width="1.43" height=".24" transform="translate(34.99 83.89) rotate(-78.45)"/>
        <rect class="cls-34" x="67.22" y="20.2" width="1.43" height=".24" transform="translate(34.38 82.79) rotate(-78.41)"/>
        <polygon class="cls-34" points="67.3 19.71 67.27 19.89 70.57 20.57 70.61 20.4 67.3 19.71"/>
        <rect class="cls-34" x="68.69" y="19.22" width=".18" height="3.38" transform="translate(34.51 84.11) rotate(-78.44)"/>
        <rect class="cls-34" x="68.91" y="18.45" width=".06" height="3.38" transform="translate(35.24 83.57) rotate(-78.31)"/>
        <rect class="cls-34" x="68.75" y="19.22" width=".06" height="3.38" transform="translate(34.58 84.15) rotate(-78.5)"/>
        <polygon class="cls-34" points="64.19 18.82 63.9 20.22 64.13 20.27 64.42 18.87 64.19 18.82"/>
        <polygon class="cls-34" points="67.01 19.4 66.72 20.8 66.95 20.85 67.24 19.45 67.01 19.4"/>
        <polygon class="cls-34" points="66.07 19.21 65.78 20.61 66.01 20.65 66.3 19.26 66.07 19.21"/>
        <polygon class="cls-34" points="65.13 19.01 64.84 20.41 65.07 20.46 65.36 19.06 65.13 19.01"/>
        <polygon class="cls-34" points="64 19.03 63.96 19.21 67.27 19.89 67.3 19.71 64 19.03"/>
        <rect class="cls-34" x="65.39" y="18.54" width=".18" height="3.38" transform="translate(32.53 80.32) rotate(-78.44)"/>
        <rect class="cls-34" x="65.6" y="17.77" width=".06" height="3.38" transform="translate(33.28 79.79) rotate(-78.31)"/>
        <rect class="cls-34" x="65.45" y="18.54" width=".06" height="3.38" transform="translate(32.6 80.36) rotate(-78.5)"/>
      </g>
      <g class="cls-35">
        <g class="cls-3">
          <rect class="cls-11" x="218.01" y="12.17" width="12.24" height="165.94"/>
        </g>
      </g>
      <g class="cls-25">
        <g class="cls-16">
          <rect class="cls-9" x="63.5" y="13.03" width="165.94" height="12.24"/>
        </g>
      </g>
      <g class="cls-27">
        <g class="cls-14">
          <rect class="cls-8" x="63.32" y="13.63" width="12.24" height="165.94"/>
        </g>
      </g>
      <g class="cls-26">
        <g class="cls-15">
          <rect class="cls-5" x="62.67" y="159.16" width="165.94" height="12.24"/>
        </g>
      </g>
      <text class="cls-31" transform="translate(21.79 79.83)"><tspan class="cls-21" x="0" y="0">VERS</tspan><tspan class="cls-20" x="17.65" y="0">A</tspan><tspan class="cls-21" x="22.43" y="0">IL</tspan><tspan class="cls-20" x="28.94" y="0">L</tspan><tspan class="cls-21" x="33.04" y="0">E</tspan><tspan x="37.26" y="0">S</tspan></text>
      <text class="cls-29" transform="translate(123.99 113.92) rotate(-42.47)"><tspan class="cls-33" x="0" y="0">P</tspan><tspan class="cls-23" x="3.93" y="0">AYNES MILL R</tspan><tspan x="53.06" y="0">D</tspan></text>
      <text class="cls-30" transform="translate(125.61 145.14) rotate(9.33)"><tspan class="cls-22" x="0" y="0">US 6</tspan><tspan x="16.4" y="0">0</tspan></text>
      <text class="cls-31" transform="translate(228.8 79.83)"><tspan class="cls-19" x="0" y="0">L</tspan><tspan class="cls-21" x="4.09" y="0">EXIN</tspan><tspan class="cls-19" x="20.18" y="0">G</tspan><tspan class="cls-18" x="24.96" y="0">T</tspan><tspan class="cls-24" x="28.87" y="0">O</tspan><tspan x="34.09" y="0">N</tspan></text>
      <g>
        <path class="cls-2" d="M271.32,83.13c-.07-3.96,2.74-5.15,5.29-5.19v-.03c-2.55.04-5.4-1.04-5.47-5.01"/>
        <path class="cls-2" d="M17.44,83.13c.07-3.96-2.74-5.15-5.29-5.19v-.03c2.55.04,5.4-1.04,5.47-5.01"/>
        <path class="cls-12" d="M141.01,46.94h-.01s-.84-.12-.84-.12v-.02c.06,0,.11-.03.15-.07.04-.04.08-.1.1-.18s.05-.2.08-.35l.2-1.21c.02-.15.04-.26.04-.35s-.01-.16-.04-.21c-.03-.05-.07-.09-.13-.11h.01s.84.12.84.12v.02s-.09.03-.12.07c-.04.04-.07.1-.09.18-.03.08-.05.2-.08.35l-.2,1.21c-.02.15-.04.26-.04.35,0,.09,0,.16.03.2.02.05.06.08.1.11M140.8,45.63v-.05s1.33.22,1.33.22v.05s-1.33-.22-1.33-.22ZM142.33,47.16h-.01s-.84-.12-.84-.12v-.02s.09-.03.12-.07c.04-.04.07-.1.09-.18.03-.08.05-.2.08-.35l.2-1.21c.02-.15.04-.26.04-.35,0-.09,0-.16-.03-.2-.02-.05-.06-.08-.1-.11h.01s.84.12.84.12v.02c-.05,0-.11.03-.15.07-.04.04-.08.1-.1.18s-.05.2-.08.35l-.2,1.21c-.02.15-.04.26-.04.35s.01.16.04.21c.03.05.07.09.13.12"/>
        <path class="cls-12" d="M143.39,45.45l-.22,1.32c-.03.17-.03.3-.02.38.02.08.06.14.13.17h-.01s-.75-.11-.75-.11v-.02c.07,0,.12-.05.17-.12.04-.07.08-.19.1-.36l.1-.64c.03-.17.03-.3.01-.38-.02-.08-.07-.14-.13-.18h.01s.6-.07.6-.07h.01ZM143.22,45.21s-.09-.03-.12-.06c-.04-.03-.06-.07-.08-.11-.02-.04-.02-.09-.02-.13,0-.05.03-.08.06-.12.03-.03.07-.06.11-.08.04-.02.09-.02.13-.01.05,0,.09.03.13.06.04.03.06.07.08.11.02.04.02.08.01.13,0,.05-.03.08-.06.12-.03.03-.07.06-.11.08-.04.02-.08.02-.13.02"/>
        <path class="cls-12" d="M144.24,46.9c-.11-.02-.2-.05-.28-.1-.04,0-.07.02-.1.04-.03.02-.04.05-.05.08,0,.05,0,.09.05.12.04.03.1.06.17.08l.35.09c.19.05.33.12.42.23.09.11.12.23.1.36-.02.11-.07.2-.15.28-.08.08-.19.13-.32.17-.14.03-.29.03-.47,0-.15-.02-.28-.06-.38-.12-.11-.05-.18-.12-.24-.2-.05-.08-.07-.16-.06-.24.02-.1.07-.17.16-.23s.21-.09.37-.09c-.1-.04-.18-.1-.23-.16-.05-.06-.06-.13-.05-.2.01-.07.05-.13.11-.17.06-.05.15-.08.25-.09-.1-.07-.17-.16-.22-.27-.04-.11-.06-.23-.03-.36.03-.2.12-.34.27-.44s.32-.13.54-.09c.12.02.22.06.31.11l.1.07c.08.07.13.15.17.25.03.1.04.21.02.33-.03.2-.12.34-.27.44s-.32.13-.54.09M143.65,47.73c-.02.12,0,.23.08.32s.17.15.29.17c.08.01.16,0,.23-.01.07-.02.13-.06.18-.11.05-.05.08-.11.09-.18.02-.09,0-.18-.07-.25-.06-.07-.16-.13-.29-.17l-.3-.09c-.06.05-.1.09-.14.15-.04.05-.06.11-.07.18M144.26,46.86c.09.01.16-.02.22-.12.06-.09.1-.24.14-.44.03-.2.03-.36,0-.47-.04-.11-.1-.17-.19-.19-.09-.02-.16.02-.22.11-.06.09-.11.23-.14.43-.03.2-.03.36,0,.47.04.12.1.18.2.2"/>
        <path class="cls-12" d="M145.04,47.6c.07,0,.13-.05.17-.12.04-.07.08-.19.11-.36l.22-1.35c.03-.17.03-.3.01-.38-.02-.08-.07-.14-.14-.18h.01s.6-.07.6-.07h0s-.33,2.03-.33,2.03c-.03.17-.04.29-.02.38.01.08.04.14.1.17h-.01s-.71-.1-.71-.1v-.02ZM145.87,46.16l-.14.15.04-.21.11.02c.08-.08.16-.13.26-.16s.19-.04.28-.02c.09.01.17.05.24.11.07.05.12.13.15.21s.04.18.02.29l-.13.8c-.03.17-.03.3-.02.38.02.08.06.14.13.17h-.01s-.71-.1-.71-.1v-.02c.05-.01.1-.05.14-.13.04-.07.07-.2.1-.37l.12-.76c.02-.11,0-.21-.04-.29-.04-.08-.11-.12-.2-.14-.05,0-.1,0-.16,0-.06.01-.11.03-.17.06"/>
        <path class="cls-12" d="M147.87,45.46l-.15.94c.06-.07.13-.12.21-.16.09-.03.17-.04.26-.03.12.02.23.08.31.18.08.1.14.22.17.37.03.15.03.31,0,.49-.03.19-.09.36-.18.49-.09.14-.19.24-.32.31-.12.07-.26.09-.41.06-.06,0-.13-.03-.2-.07-.07-.03-.14-.08-.22-.14l-.29.09h-.01s.32-1.93.32-1.93c.03-.17.03-.29.01-.38-.02-.08-.06-.14-.14-.18h.01s.59-.07.59-.07h0ZM147.72,48.04c.08.01.16-.01.23-.07.07-.06.12-.15.17-.27.05-.12.08-.25.11-.4.03-.16.03-.3.03-.44,0-.13-.04-.25-.08-.33-.05-.09-.11-.14-.2-.15-.04,0-.08,0-.12.01-.04.01-.09.04-.14.07l-.19,1.18c-.02.11,0,.2.04.27.04.08.1.12.18.13"/>
        <path class="cls-12" d="M149.35,47.78c-.03.17-.03.3-.02.38.02.08.06.14.13.17h-.01s-.75-.11-.75-.11v-.02c.07,0,.12-.05.17-.12.04-.07.08-.19.1-.36l.11-.64c.03-.17.03-.3.01-.38-.02-.08-.07-.14-.14-.18h.01s.6-.07.6-.07h0s-.07.46-.07.46h0s-.14.87-.14.87ZM150.24,46.57l-.14.4h-.01s-.08-.08-.13-.1c-.05-.02-.09-.04-.14-.05-.07-.01-.13,0-.2.03s-.11.08-.16.14l-.04-.1h.08c.04-.09.1-.18.17-.25.07-.07.16-.11.26-.12.1-.02.2,0,.3.05"/>
        <path class="cls-12" d="M151,47.22c.02-.11,0-.2-.05-.28-.05-.08-.12-.12-.22-.14-.07-.01-.15,0-.23.03-.08.03-.16.09-.22.18h-.01c.04-.1.09-.17.16-.22s.14-.09.23-.11c.09-.02.17-.02.26,0,.1.02.19.05.27.11.08.06.13.13.17.22.04.09.05.2.03.33l-.17,1.01c0,.06,0,.11.02.15.02.04.06.06.1.07.03,0,.05,0,.08,0,.03,0,.06-.02.09-.04h.01c-.05.07-.11.12-.18.14-.07.03-.14.03-.22.02-.08-.01-.15-.05-.21-.11-.06-.06-.09-.13-.08-.23h0c-.07.09-.15.15-.24.18-.09.03-.18.04-.27.02-.12-.02-.22-.08-.3-.17-.08-.1-.1-.21-.08-.36.02-.1.05-.18.11-.24.06-.06.12-.11.19-.14.07-.03.15-.05.22-.07.07-.01.14-.02.19-.03.09-.01.16-.04.22-.07.06-.03.1-.07.1-.12l.02-.12ZM150.96,47.5s-.08.03-.11.04-.07.02-.09.03c-.13.04-.23.09-.29.17-.06.08-.1.17-.11.27-.02.11-.01.21.02.27.03.07.09.11.16.12.04,0,.09,0,.14-.02.06-.02.11-.06.15-.11l.13-.77Z"/>
        <path class="cls-12" d="M151.54,48.67c.07,0,.13-.05.17-.12.04-.07.08-.19.1-.36l.11-.64c.03-.17.03-.3.01-.38-.02-.08-.07-.14-.14-.18h.01s.59-.07.59-.07h0s-.04.26-.04.26c.07-.07.16-.13.25-.16.09-.03.18-.04.28-.02.14.02.25.09.33.21.07.12.09.25.07.41l-.13.79c-.03.17-.04.29-.03.38,0,.08.04.14.1.17h-.01s-.68-.1-.68-.1v-.02c.05-.01.1-.05.14-.13.04-.07.07-.2.1-.37l.13-.77c.02-.11,0-.21-.03-.28-.04-.08-.1-.12-.19-.13-.1-.02-.21,0-.32.07l-.17,1.02c-.03.17-.04.29-.02.38.01.08.04.14.1.17h-.01s-.71-.1-.71-.1v-.02ZM153.3,47.38l-.12.09.02-.15h.1c.08-.06.16-.12.26-.15.1-.03.2-.04.3-.02.14.02.25.09.32.21.07.11.1.25.07.41l-.13.79c-.03.17-.03.3-.02.38.02.08.06.14.13.17h-.01s-.71-.1-.71-.1v-.02c.05-.01.1-.05.14-.13.04-.07.07-.19.1-.36l.13-.77c.02-.12,0-.21-.04-.29-.05-.07-.11-.12-.2-.13-.05,0-.11,0-.16,0-.06.01-.11.03-.17.07"/>
        <path class="cls-12" d="M155.31,46.68l-.15.94c.06-.07.13-.12.21-.16.09-.03.17-.04.26-.03.12.02.23.08.31.18.08.1.14.22.17.37.03.15.03.31,0,.49-.03.19-.09.36-.18.49-.09.14-.19.24-.32.31-.12.07-.26.09-.41.06-.06,0-.13-.03-.2-.07-.07-.03-.14-.08-.22-.14l-.29.09h-.01s.32-1.93.32-1.93c.03-.17.03-.29.01-.38-.02-.08-.06-.14-.14-.18h.01s.59-.07.59-.07h0ZM155.16,49.26c.08.01.16-.01.23-.07.07-.06.12-.15.17-.27.05-.12.08-.25.11-.4.03-.16.03-.3.03-.44,0-.13-.04-.25-.08-.33-.05-.09-.11-.14-.2-.15-.04,0-.08,0-.12.01-.04.01-.09.04-.14.07l-.19,1.18c-.02.11,0,.2.04.27.04.08.1.12.18.13"/>
        <path class="cls-12" d="M157.12,46.97l-.33,2.02c-.03.17-.03.3-.02.38.02.08.06.14.13.17h-.01s-.75-.11-.75-.11v-.02c.07,0,.12-.05.16-.12.04-.07.08-.19.11-.36l.22-1.35c.03-.17.03-.3.01-.38-.02-.08-.07-.14-.13-.18h.01s.6-.07.6-.07h0Z"/>
        <path class="cls-12" d="M157.8,49.76c-.15-.02-.27-.09-.37-.19-.1-.1-.17-.23-.22-.39-.04-.16-.05-.33-.02-.52.03-.19.09-.35.18-.48.09-.13.2-.23.33-.29.13-.06.26-.08.4-.06.13.02.24.07.33.16.09.08.15.19.19.32.04.13.04.27.02.43,0,.02,0,.04-.01.06,0,.02-.01.04-.02.06l-1.13-.18v-.05s.77.12.77.12c0-.03.01-.06.02-.09,0-.03.01-.06.02-.08.03-.2.03-.36,0-.48-.03-.12-.1-.19-.19-.21-.1-.02-.19.04-.27.15-.08.12-.14.29-.18.51-.03.21-.04.38,0,.53.03.15.08.27.15.35.07.09.16.14.25.15.08.01.15,0,.22-.03.07-.03.14-.09.2-.17h.02c-.04.1-.1.18-.17.23-.07.06-.15.1-.24.12-.09.02-.18.03-.27,0"/>
        <path class="cls-12" d="M144.98,45.46s.04.05.06.08c.01.02.02.05.02.08,0,.04-.01.08-.04.11-.03.03-.08.05-.14.05h-.01s0,0,0,.01c0,.01,0,.02,0,.03,0,0,0,0,0,.01h0s0,.03,0,.04c0,0,0,.01,0,.02,0,0,0,0,0,0,0,.02.01.05.02.07,0,.01,0,.02.01.04t0,0s0,0,0,0c0,0,0,.01,0,.02.01.02.03.04.04.06,0,0,0,0,0,0,0,0,0,0,0,0,0,0,.02.02.03.03,0,0,0,0,.01.01.07-.02.13-.06.17-.12.04-.07.06-.15.06-.23,0-.08-.03-.15-.07-.21s-.1-.11-.17-.14v.02Z"/>
        <path class="cls-12" d="M147.04,50.58s-.18.03-.21.05c-.08.03-.16.03-.24.05-.12.03-.32.04-.45.02-.03,0-.05-.01-.07-.03,0,0,0,0,0-.01,0,0,0,0,0,0,0,0,0,0,0,0h0s0-.02,0-.03h0s0,0,0-.01c0,0,0,0,0-.01,0,0,0,0,0,0,0,0,0-.01,0-.02,0,0,0,0,0,0,.02-.02.04-.03.06-.05.05-.03.09-.06.14-.1.04-.04.08-.08.11-.13h0s.02-.02.03-.04c.03-.03.05-.07.07-.11.04-.1,0-.2-.1-.24-.03-.01-.05-.01-.08-.01-.03-.01-.07-.02-.1-.02-.02,0-.04,0-.06.02-.05,0-.11,0-.15.04-.09.02-.18.06-.26.11,0,0-.02,0-.02,0,0,0-.02-.01-.02-.02,0,0,0,0,0,0,.04-.03.07-.06.09-.07.03-.02.05-.05.08-.08.04-.04.08-.07.13-.1.16-.13.31-.25.49-.35.07-.04.11-.12.18-.14.04,0,.08-.03.08-.08,0-.03-.01-.05-.04-.06-.18-.03-.53.2-.65.32-.08.07-.18.1-.26.17-.07.06-.16.1-.23.15-.08.05-.24.18-.33.2-.15.04-.3.12-.45.15-.09.02-.16.05-.25.07-.02,0-.07.02-.07.04,0,.01.02.03.03.03.08.01.24-.07.31-.09.06,0,.34-.1.36-.1,0,0,.01,0,0,0,0,.05-.13.14-.17.16-.13.08-.22.18-.33.27-.13.11-.27.21-.4.32-.13.11-.26.21-.41.3-.07.05-.14.09-.22.13-.07.04-.12.1-.2.14-.04.02-.05.05-.09.07-.08.03-.35.19-.38.26,0,.02-.01.05-.02.07,0,.02,0,.04.01.06.03.06.17.23.24.24.03,0,.05-.01.07-.03.06-.04.08-.1.13-.15.05-.07.11-.15.18-.21.1-.09.21-.16.31-.25.07-.07.14-.13.2-.2.05-.05.12-.09.18-.13.1-.07.2-.14.28-.23.05-.05.1-.09.16-.13.06-.04.12-.06.16-.12.05-.06.11-.08.17-.13.04-.04.11-.07.15-.1.05-.05.11-.08.16-.12.05-.04.21-.12.36-.16,0,0,0,0,0,0,.06-.03.13-.05.19-.05.05,0,.1.03.11.09,0,.04-.01.08-.04.12,0,.03,0,.05-.01.07-.01.02-.03.03-.04.05-.03.05-.07.09-.12.12-.04.02-.08.04-.13.06-.06.01-.13.02-.19.02-.13.04-.27.03-.39-.04-.04-.02-.09.04-.05.07,0,0,0,0,0,0t0,0c.06.04.12.07.19.09,0,0,0,0,0,0,.02,0,.04.01.06.02,0,0,.01,0,.01,0,.03.02.06.03.09.01,0,0,0,0,0,0,.02,0,.04,0,.07,0,.01,0,.03,0,.04,0,.07,0,.15,0,.22-.01.04,0,.08.02.12.03.03,0,.05,0,.08,0,.09,0,.18,0,.27,0,.1,0,.28-.02.38-.05.07-.03.45-.1.46-.17,0,0,0-.01-.02-.01"/>
        <path class="cls-12" d="M149.21,51.04c-.06.01-.11.03-.17.04-.09.01-.16.05-.25.06-.11.02-.23.06-.34.07-.14.01-.28.06-.42.04-.08-.01-.11-.07-.16-.12-.02-.02-.04-.05-.04-.08,0-.01,0-.03.01-.04,0-.01-.01-.03-.02-.03,0,0-.01,0-.02,0-.07.02-.14,0-.21.03-.1.04-.21.02-.31.04-.08.01-.21.02-.29.01-.06-.01-.07-.04-.11-.07-.05-.04-.1-.04-.13-.12,0-.03-.02-.07-.01-.1,0-.05.06-.08.1-.11.06-.04.11-.08.18-.12.11-.05.21-.11.33-.15.15-.05.32-.14.48-.16.1-.01.19-.05.29-.05.11,0,.21.01.32.03.11.02.18.04.16.18-.02.1-.1.13-.1.17.01.03.03.02.02.07,0,.04-.02.07-.06.09-.07.05-.14.12-.22.15-.05.02-.06.02-.09.06-.02.03-.04.04-.05.07-.01.06.04.12.1.13.13.02.19,0,.31,0,.1,0,.19-.04.29-.06.11-.03.22-.04.32-.07.06-.02.19-.06.25-.05.01,0,.03.01.03.03,0,.03-.14.06-.17.07M148.4,50.33s-.09-.03-.14-.04c-.08-.01-.19.06-.28.08-.11.02-.2.1-.3.13-.09.02-.18.08-.27.13-.06.03-.08.09-.13.13,0,0-.02.02-.02.03,0,.04.06.07.09.07.04,0,.08,0,.12,0,.11-.03.22-.05.33-.08.11-.03.21-.06.3-.12.06-.04.11-.07.18-.08.07,0,.18-.06.19-.14,0-.05-.02-.09-.07-.1"/>
        <path class="cls-12" d="M151.11,51.35c-.09.02-.17.04-.25.07-.09.04-.2.04-.29.07-.07.03-.14.05-.22.07-.17.03-.33.11-.5.1-.06,0-.12-.01-.18,0-.03,0-.05,0-.08,0-.09-.02-.21-.09-.19-.2.02-.13.19-.16.28-.24.06-.06.12-.07.19-.11.05-.02.08-.06.12-.09.02,0,.03-.02.05-.03.02,0,.04-.02.04-.05,0-.02,0-.03.01-.05.01-.06-.1-.11-.15-.12-.04,0-.08,0-.12.03-.09.04-.24.11-.33.13-.04,0-.09.03-.13.05-.05.02-.26.09-.3.08-.02,0-.03-.01-.03-.03,0-.03.19-.07.23-.09.07-.03.13-.06.2-.08.06-.03.1-.08.17-.1.06-.03.14-.11.15-.18,0-.04,0-.07,0-.11.01-.08.06-.11.13-.11.07,0,.14-.02.21-.01.06,0,.08.07.07.12-.02.1-.13.09-.15.16,0,.01,0,.03,0,.04.01.01.11.07.13.08.08.04.14.11.13.2-.03.16-.19.25-.32.33-.03.02-.06.04-.09.07-.04.04-.09.07-.14.11,0,0-.03.01-.03.03,0,.03.06.04.08.05.12.02.38,0,.51-.03l.08-.02h.07c.12-.04.24-.09.37-.11.06,0,.11-.02.17-.04.04-.01.2-.06.23-.06.01,0,.03.01.03.03,0,.04-.12.07-.15.07"/>
        <path class="cls-12" d="M153.92,51.75s-.06,0-.09.02c-.12.04-.24.05-.35.08-.05.01-.1.03-.16.04-.15.01-.29.05-.44.02-.1-.02-.2-.04-.18-.16.02-.11.15-.22.24-.27.08-.04.1-.14.16-.16.07-.04.16-.1.18-.18.01-.04.04-.09.04-.13.01-.1-.07-.15-.15-.16-.08-.01-.15,0-.22.03-.18.08-.38.14-.55.24-.12.07-.3.09-.39.16-.02.01-.04.03-.06.03-.01,0-.02,0-.02-.02,0-.05.09-.11.14-.12.1-.04.22-.19.32-.25.11-.06.21-.14.31-.22.13-.12.28-.21.42-.33.07-.06.14-.11.21-.17,0,0,0,0,0,0,0,0,0,0,0,0h0s0-.01,0-.01c0,0,0,0,0,0,0,0,0,0,0,0,0,0,0-.01,0-.02h0s0-.01,0-.01h0s0,0,0,0c0,0,0,0,0,0,0,0,0,0,0,0h0c-.07-.03-.15-.02-.23,0-.04,0-.07.01-.11.02-.12.08-.23.19-.34.28-.19.16-.38.34-.59.46-.18.11-.37.21-.57.27-.06.02-.12.04-.18.06-.06.02-.11.04-.18.06-.02,0-.21.06-.21.08,0,.01.02.03.03.03.04,0,.24-.06.29-.08.07-.03.15-.03.22-.06.04-.02.1-.04.15-.03.01,0,.02,0,.01.02,0,.02-.1.09-.12.11-.06.06-.11.1-.18.15-.05.04-.17.15-.18.21,0,.05.11.09.15.09.02,0,.03,0,.05,0,.05-.03.09-.07.14-.11.05-.04.12-.06.18-.09l.13-.07c.11-.07.23-.12.35-.19.12-.07.25-.1.36-.17.1-.07.22-.09.34-.12.03,0,.13-.06.15-.06.02,0,.02.02.01.03,0,.05-.1.19-.14.24-.07.09-.17.16-.27.22-.11.07-.29-.01-.3.06,0,.06.04.06.07.07.08.04.09.19.11.26.03.13.1.07.16.15.02.02.03.03.07.04.12.02.26-.03.38-.04.08,0,.15-.02.23-.04.09-.04.2-.04.29-.07.06-.02.12-.02.18-.05.02,0,.11-.03.11-.05,0-.01-.02-.02-.03-.02"/>
      </g>
    </g>
  </g>
</svg>